<svg width="500" height="313" viewBox="0 0 500 313" fill="none" xmlns="http://www.w3.org/2000/svg">
<g clip-path="url(#clip0_185_864)">
<path d="M5.85221 165.571C7.31629 166.147 8.87977 166.427 10.4526 166.396C11.9214 166.42 13.3821 166.172 14.7609 165.665C15.9514 165.221 17.0227 164.507 17.8904 163.579C18.7319 162.657 19.3715 161.57 19.7681 160.387C20.202 159.039 20.4134 157.63 20.394 156.214V144.739C20.8336 144.634 21.2796 144.557 21.7292 144.51C22.2091 144.51 22.5637 144.437 22.7724 144.437C23.3397 144.413 23.9036 144.535 24.4101 144.792C24.8123 145.01 25.1503 145.33 25.3907 145.72C25.641 146.134 25.801 146.596 25.8601 147.076C25.9365 147.619 25.9749 148.166 25.9749 148.714V157.56C26.1905 157.629 26.5382 157.723 27.0181 157.842C27.4875 157.956 28.0612 158.061 28.6767 158.175C29.2922 158.29 30.0119 158.384 30.763 158.457C31.5141 158.53 32.3695 158.572 33.2353 158.572H79.385C80.9873 158.555 82.5737 158.251 84.0688 157.675C84.7289 157.925 85.405 158.13 86.0926 158.29C86.9652 158.487 87.858 158.582 88.7526 158.572H168.878C170.659 158.572 172.369 158.54 174.011 158.478C175.648 158.415 177.14 158.332 178.454 158.238C179.769 158.144 180.906 158.019 181.834 157.894C182.515 157.82 183.19 157.708 183.858 157.56V148.756C183.91 147.283 183.617 145.818 183.003 144.479C182.487 143.394 181.709 142.455 180.739 141.746C179.753 141.041 178.636 140.541 177.453 140.275C176.168 139.97 174.851 139.82 173.531 139.826C172.074 139.829 170.62 139.941 169.181 140.16C167.71 140.389 166.333 140.661 165.008 140.984L165.937 145.365C166.761 145.167 167.762 144.969 168.951 144.75C170.129 144.542 171.323 144.437 172.519 144.437C173.294 144.437 174.066 144.517 174.824 144.677C175.522 144.822 176.184 145.102 176.775 145.501C177.348 145.912 177.807 146.461 178.11 147.097C178.475 147.909 178.65 148.794 178.621 149.684V153.512C178.486 153.512 178.142 153.575 177.578 153.627L175.492 153.773C174.664 153.822 173.778 153.864 172.832 153.898C171.872 153.898 170.975 153.961 170.13 153.961H89.7123C89.1523 153.962 88.5934 153.91 88.0433 153.805C87.4904 153.711 87.0001 153.606 86.6976 153.512V139.659L81.4818 140.629V153.565C81.1375 153.658 80.689 153.763 80.1465 153.857C79.5963 153.961 79.0375 154.014 78.4774 154.013H34.2055C33.6454 154.014 33.0866 153.961 32.5364 153.857C31.994 153.763 31.4932 153.658 31.1907 153.565V148.13C31.2387 146.755 31.019 145.384 30.544 144.093C30.1664 143.117 29.5451 142.255 28.7393 141.589C27.9642 140.95 27.055 140.493 26.0792 140.254C24.975 139.995 23.8439 139.869 22.7098 139.878C21.5177 139.883 20.3267 139.953 19.1422 140.087C17.9008 140.222 16.5864 140.442 15.199 140.734V156.381C15.2251 157.266 15.0944 158.149 14.813 158.989C14.5824 159.617 14.2276 160.191 13.7698 160.679C13.3656 161.103 12.859 161.415 12.299 161.587C11.7388 161.763 11.1546 161.851 10.5673 161.847C9.64635 161.88 8.729 161.716 7.87596 161.367C7.20931 161.076 6.63033 160.616 6.19646 160.032C5.77745 159.433 5.48303 158.755 5.33063 158.04C5.15018 157.239 5.06267 156.42 5.06984 155.599C5.06755 154.65 5.17963 153.704 5.40365 152.782C5.59298 151.93 5.85473 151.096 6.18603 150.289L1.63782 149.069C1.13183 150.121 0.733404 151.222 0.448614 152.355C0.15025 153.488 -0.000516497 154.656 5.23318e-05 155.828C-0.0128597 157.245 0.205601 158.654 0.646815 160.001C1.06215 161.241 1.72991 162.381 2.60797 163.349C3.51401 164.318 4.62141 165.077 5.85221 165.571Z" fill="white"/>
<path d="M84.0688 137.281C84.69 137.29 85.2899 137.054 85.7379 136.624C86.1931 136.15 86.4473 135.518 86.4473 134.861C86.4473 134.204 86.1931 133.572 85.7379 133.098C85.2844 132.676 84.6881 132.442 84.0688 132.442C83.4496 132.442 82.8533 132.676 82.3998 133.098C81.9367 133.575 81.6785 134.214 81.6804 134.879C81.6824 135.543 81.9443 136.181 82.4102 136.655C82.8606 137.072 83.4556 137.296 84.0688 137.281Z" fill="white"/>
<path d="M175.252 163.527C175.268 163.199 175.213 162.872 175.09 162.568C174.968 162.263 174.781 161.989 174.543 161.764C174.087 161.342 173.489 161.107 172.868 161.107C172.247 161.107 171.649 161.342 171.194 161.764C170.739 162.238 170.485 162.87 170.485 163.527C170.485 164.184 170.739 164.816 171.194 165.29C171.649 165.712 172.247 165.947 172.868 165.947C173.489 165.947 174.087 165.712 174.543 165.29C174.781 165.065 174.968 164.79 175.09 164.486C175.213 164.182 175.268 163.854 175.252 163.527Z" fill="white"/>
<path d="M202.531 137.281C203.117 137.292 203.683 137.071 204.106 136.665C204.328 136.446 204.5 136.182 204.612 135.89C204.723 135.599 204.771 135.287 204.753 134.975C204.77 134.669 204.721 134.362 204.609 134.076C204.498 133.79 204.326 133.531 204.106 133.317C203.683 132.911 203.117 132.689 202.531 132.701C201.936 132.691 201.36 132.912 200.924 133.317C200.701 133.529 200.526 133.787 200.411 134.074C200.296 134.36 200.243 134.667 200.257 134.975C200.241 135.288 200.293 135.601 200.408 135.892C200.523 136.184 200.699 136.447 200.924 136.665C201.36 137.07 201.936 137.29 202.531 137.281Z" fill="white"/>
<path d="M198.202 156.475C198.966 157.302 199.907 157.944 200.956 158.353C202.197 158.824 203.519 159.051 204.847 159.021C205.97 159.061 207.089 158.866 208.133 158.447C208.963 158.079 209.744 157.609 210.459 157.049C210.926 157.636 211.57 158.056 212.295 158.249C213.2 158.485 214.134 158.597 215.07 158.582H224.03C225.814 158.582 227.348 158.582 228.641 158.489C229.935 158.395 231.02 158.343 231.927 158.249C232.835 158.155 233.575 158.03 234.16 157.904C234.744 157.779 235.203 157.675 235.662 157.571V148.578C235.727 147.455 235.566 146.33 235.19 145.269C234.814 144.209 234.23 143.234 233.471 142.403C232.617 141.618 231.616 141.01 230.525 140.615C229.435 140.219 228.277 140.043 227.118 140.098C228.655 138.512 230.046 136.982 231.291 135.508C232.564 134.037 233.742 132.66 234.806 131.398L230.571 129.76L228.881 131.773C228.266 132.493 227.64 133.223 227.003 133.985C226.367 134.746 225.699 135.487 225.042 136.227L223.133 138.387C221.694 140.004 220.233 141.621 218.742 143.258L220.525 145.272C221.115 145.052 221.717 144.871 222.33 144.729C223.201 144.516 224.094 144.411 224.99 144.416C226.391 144.34 227.782 144.704 228.965 145.459C229.481 145.891 229.883 146.444 230.136 147.068C230.389 147.691 230.484 148.368 230.415 149.037V153.534L229.653 153.648L228.193 153.794C227.588 153.794 226.92 153.888 226.158 153.92C225.397 153.951 224.604 153.982 223.759 153.982H215.059C214.812 154.002 214.563 153.958 214.337 153.856C214.111 153.754 213.914 153.597 213.766 153.398C213.421 152.704 213.276 151.927 213.348 151.155V140.963C212.556 140.744 211.502 140.504 210.219 140.244C208.677 139.962 207.112 139.83 205.546 139.847C204.148 139.82 202.758 140.068 201.456 140.577C200.316 141.031 199.298 141.746 198.483 142.664C197.671 143.57 197.057 144.636 196.679 145.793C196.254 147.143 196.046 148.551 196.063 149.966C196.051 151.206 196.227 152.44 196.585 153.627C196.914 154.681 197.465 155.653 198.202 156.475ZM202.468 145.783C202.833 145.334 203.299 144.978 203.829 144.746C204.359 144.514 204.937 144.411 205.514 144.448C205.999 144.449 206.483 144.48 206.964 144.541L208.185 144.708V151.478C208.185 151.771 208.185 152.063 208.185 152.334C208.215 152.656 208.264 152.977 208.331 153.294C207.836 153.648 207.291 153.926 206.714 154.118C206.16 154.309 205.579 154.408 204.993 154.41C204.504 154.44 204.016 154.36 203.562 154.176C203.109 153.992 202.703 153.708 202.374 153.346C201.668 152.324 201.34 151.089 201.446 149.851C201.331 148.434 201.686 147.019 202.458 145.825L202.468 145.783Z" fill="white"/>
<path d="M207.767 137.281C208.07 137.292 208.371 137.239 208.652 137.126C208.932 137.013 209.186 136.842 209.397 136.625C209.607 136.407 209.77 136.148 209.874 135.864C209.977 135.58 210.02 135.277 210 134.975C210.015 134.669 209.965 134.363 209.853 134.077C209.742 133.791 209.571 133.532 209.353 133.317C208.926 132.911 208.356 132.69 207.767 132.701C207.176 132.694 206.605 132.914 206.171 133.317C205.944 133.526 205.766 133.784 205.651 134.071C205.535 134.358 205.485 134.667 205.504 134.975C205.486 135.288 205.536 135.602 205.651 135.894C205.766 136.186 205.944 136.449 206.171 136.665C206.605 137.067 207.176 137.288 207.767 137.281Z" fill="white"/>
<path d="M242.755 166.396C243.758 166.394 244.757 166.268 245.728 166.02C246.697 165.783 247.609 165.353 248.409 164.758C249.243 164.11 249.912 163.273 250.36 162.317C250.911 161.097 251.196 159.774 251.194 158.436C251.608 158.506 252.027 158.548 252.446 158.561C252.801 158.561 253.145 158.561 253.489 158.561H254.783C255.627 158.564 256.47 158.48 257.297 158.311C258.044 158.17 258.774 157.953 259.477 157.664C260.163 157.959 260.881 158.176 261.616 158.311C262.526 158.488 263.452 158.572 264.38 158.561C265.321 158.566 266.261 158.482 267.186 158.311C267.938 158.191 268.671 157.974 269.366 157.664C270.082 157.967 270.832 158.184 271.599 158.311C272.493 158.481 273.401 158.565 274.311 158.561C275.867 158.581 277.421 158.455 278.953 158.186C279.939 158.021 280.909 157.773 281.853 157.445V139.816L276.637 140.786V153.648C275.102 154.052 273.489 154.052 271.953 153.648V139.878L266.738 140.848V153.711C265.202 154.114 263.589 154.114 262.054 153.711V139.878L256.838 140.848V153.711C256.453 153.802 256.063 153.871 255.67 153.919C255.167 153.975 254.662 154.003 254.157 154.003C253.611 154.007 253.066 153.958 252.53 153.857C251.977 153.763 251.487 153.658 251.184 153.565V139.659L245.968 140.629V158.061C245.987 158.715 245.896 159.367 245.697 159.99C245.539 160.443 245.27 160.848 244.915 161.169C244.578 161.452 244.182 161.655 243.757 161.764C243.289 161.876 242.809 161.932 242.328 161.931C241.755 161.927 241.184 161.889 240.617 161.816C240.022 161.743 239.438 161.66 238.875 161.555L238.197 165.832C238.925 166.011 239.664 166.147 240.408 166.239C241.186 166.345 241.97 166.397 242.755 166.396Z" fill="white"/>
<path d="M266.779 137.281C267.365 137.292 267.932 137.071 268.355 136.665C268.576 136.452 268.75 136.193 268.863 135.907C268.977 135.621 269.027 135.314 269.012 135.007C269.029 134.694 268.98 134.382 268.866 134.09C268.753 133.799 268.578 133.535 268.355 133.317C267.932 132.911 267.365 132.689 266.779 132.701C266.185 132.691 265.609 132.912 265.173 133.317C264.948 133.535 264.772 133.798 264.657 134.089C264.541 134.381 264.49 134.694 264.505 135.007C264.492 135.315 264.544 135.622 264.659 135.908C264.775 136.194 264.95 136.452 265.173 136.665C265.609 137.07 266.185 137.29 266.779 137.281Z" fill="white"/>
<path d="M269.752 135.007C269.734 135.315 269.784 135.624 269.9 135.911C270.015 136.198 270.193 136.455 270.42 136.665C270.853 137.067 271.425 137.288 272.016 137.281C272.605 137.292 273.174 137.071 273.602 136.665C273.82 136.45 273.991 136.191 274.102 135.905C274.213 135.619 274.263 135.313 274.248 135.007C274.269 134.705 274.226 134.402 274.122 134.118C274.018 133.833 273.856 133.574 273.645 133.357C273.435 133.14 273.181 132.969 272.9 132.856C272.62 132.743 272.318 132.69 272.016 132.701C271.425 132.694 270.853 132.914 270.42 133.317C270.193 133.533 270.015 133.796 269.9 134.088C269.784 134.38 269.734 134.693 269.752 135.007Z" fill="white"/>
<path d="M269.377 132.482C269.966 132.493 270.535 132.272 270.962 131.867C271.181 131.651 271.351 131.392 271.463 131.107C271.574 130.821 271.624 130.515 271.609 130.208C271.63 129.906 271.587 129.603 271.483 129.319C271.379 129.035 271.217 128.776 271.006 128.559C270.796 128.341 270.542 128.171 270.261 128.058C269.98 127.945 269.679 127.892 269.377 127.903C268.786 127.896 268.214 128.116 267.781 128.518C267.555 128.736 267.379 128.999 267.264 129.291C267.148 129.582 267.097 129.895 267.113 130.208C267.095 130.517 267.145 130.826 267.26 131.113C267.376 131.399 267.554 131.657 267.781 131.867C268.214 132.269 268.786 132.489 269.377 132.482Z" fill="white"/>
<path d="M13.2795 179.216C13.0126 179.21 12.7471 179.256 12.4982 179.353C12.2494 179.45 12.0221 179.595 11.8295 179.78C11.4461 180.194 11.2331 180.738 11.2331 181.303C11.2331 181.867 11.4461 182.411 11.8295 182.826C12.2288 183.181 12.7448 183.378 13.2795 183.378C13.8142 183.378 14.3302 183.181 14.7295 182.826C15.113 182.411 15.3259 181.867 15.3259 181.303C15.3259 180.738 15.113 180.194 14.7295 179.78C14.3369 179.412 13.8174 179.21 13.2795 179.216Z" fill="white"/>
<path d="M6.69713 179.78C6.31369 180.194 6.10071 180.738 6.10071 181.303C6.10071 181.867 6.31369 182.411 6.69713 182.826C6.89023 183.009 7.11782 183.153 7.36672 183.248C7.61562 183.342 7.88088 183.387 8.14713 183.379C8.68357 183.388 9.20287 183.19 9.59713 182.826C9.98057 182.411 10.1936 181.867 10.1936 181.303C10.1936 180.738 9.98057 180.194 9.59713 179.78C9.20449 179.412 8.68501 179.21 8.14713 179.216C7.88023 179.21 7.6147 179.256 7.36584 179.353C7.11699 179.45 6.88972 179.595 6.69713 179.78Z" fill="white"/>
<path d="M50.3432 179.623C49.9605 180.054 49.7491 180.611 49.7491 181.188C49.7491 181.764 49.9605 182.321 50.3432 182.752C50.7645 183.155 51.325 183.38 51.908 183.38C52.4909 183.38 53.0515 183.155 53.4727 182.752C53.8555 182.321 54.0669 181.764 54.0669 181.188C54.0669 180.611 53.8555 180.054 53.4727 179.623C53.0502 179.222 52.4902 178.999 51.908 178.999C51.3258 178.999 50.7657 179.222 50.3432 179.623Z" fill="white"/>
<path d="M67.0547 203.167C67.6702 203.167 68.2753 203.052 68.8803 202.979C69.4853 202.906 70.0591 202.812 70.5911 202.698C71.0262 202.622 71.4551 202.514 71.8742 202.374V185.986L68.6404 186.581V199.85C68.2195 199.978 67.7909 200.079 67.3573 200.152C66.7147 200.278 66.0614 200.341 65.4066 200.34H64.6763C64.0181 200.342 63.3612 200.279 62.7152 200.152C62.2818 200.077 61.8533 199.976 61.4321 199.85V195.135C61.4673 193.766 61.2407 192.402 60.7645 191.118C60.3741 190.083 59.7657 189.144 58.9806 188.364C58.2467 187.633 57.3595 187.074 56.3832 186.727C55.3779 186.374 54.3191 186.197 53.2537 186.205C51.4882 186.215 49.7452 186.602 48.1422 187.342C46.4227 188.111 44.8732 189.214 43.5835 190.586V185.944L40.3497 186.539V200.298H19.1108C18.8407 200.31 18.573 200.243 18.3411 200.103C18.1092 199.964 17.9234 199.76 17.8069 199.516C17.4881 198.74 17.349 197.902 17.4 197.064V187.353C17.0767 187.227 16.6594 187.102 16.1587 186.967C15.658 186.831 15.1155 186.706 14.5209 186.591C13.9263 186.476 13.3317 186.393 12.6954 186.32C12.0866 186.241 11.4732 186.203 10.8594 186.205C9.46465 186.165 8.07839 186.435 6.80148 186.998C5.7538 187.484 4.82733 188.196 4.08924 189.084C3.39796 189.959 2.88736 190.963 2.58708 192.036C2.25931 193.151 2.09074 194.307 2.08636 195.468C2.08615 196.497 2.2517 197.518 2.57665 198.494C2.88744 199.455 3.37967 200.347 4.02665 201.122C4.70252 201.917 5.54711 202.552 6.49896 202.979C7.61441 203.474 8.82562 203.717 10.0457 203.689C10.6593 203.694 11.2716 203.631 11.8713 203.501C12.3765 203.386 12.8692 203.222 13.3421 203.011C13.7483 202.827 14.1391 202.61 14.5105 202.364L15.4702 201.717C15.954 202.303 16.6116 202.719 17.3479 202.906C18.2784 203.142 19.2359 203.254 20.1957 203.24H47.0051C48.7889 203.24 50.4163 203.24 51.8975 203.146C53.3788 203.052 54.6515 203 55.7468 202.906C56.8422 202.812 57.7288 202.708 58.4173 202.604C58.8727 202.557 59.323 202.469 59.763 202.343C61.2598 202.914 62.8451 203.217 64.4468 203.24H65.3753C65.4377 203.245 65.5005 203.245 65.563 203.24C66.0429 203.23 66.5227 203.209 67.0547 203.167ZM12.7371 200.204C11.9116 200.561 11.0177 200.732 10.1187 200.705C9.39962 200.725 8.68555 200.579 8.03241 200.277C7.46934 200.008 6.97384 199.616 6.58241 199.13C6.19237 198.633 5.90834 198.061 5.74788 197.45C5.5705 196.805 5.48274 196.138 5.48709 195.468C5.48367 194.677 5.57828 193.889 5.76874 193.121C5.93924 192.412 6.23988 191.739 6.65543 191.139C7.06686 190.555 7.61006 190.076 8.24104 189.741C8.9543 189.379 9.74659 189.2 10.5464 189.22C10.922 189.22 11.2975 189.22 11.6939 189.272L12.7997 189.387C13.091 189.417 13.3802 189.466 13.6655 189.533L14.1871 189.668V196.971C14.1708 197.734 14.2408 198.497 14.3957 199.245C13.8755 199.618 13.32 199.939 12.7371 200.204ZM58.1878 199.85C57.1067 200.017 56.0163 200.118 54.9227 200.152C52.9824 200.277 50.2493 200.34 46.7026 200.34H43.5731V194.717C44.6444 193.026 46.1126 191.623 47.8501 190.628C49.4363 189.712 51.2343 189.227 53.0659 189.22C53.7532 189.212 54.436 189.332 55.0792 189.575C55.7069 189.81 56.2686 190.193 56.717 190.691C57.2002 191.259 57.5559 191.924 57.7601 192.641C58.0395 193.582 58.1698 194.561 58.1461 195.541L58.1878 199.85Z" fill="white"/>
<path d="M70.2364 205.733C69.9556 205.725 69.6759 205.773 69.4142 205.875C69.1525 205.977 68.9141 206.131 68.7134 206.328C68.3039 206.758 68.0756 207.33 68.0756 207.924C68.0756 208.518 68.3039 209.09 68.7134 209.52C69.1279 209.904 69.6718 210.116 70.2364 210.116C70.8011 210.116 71.3449 209.904 71.7594 209.52C72.1689 209.09 72.3973 208.518 72.3973 207.924C72.3973 207.33 72.1689 206.758 71.7594 206.328C71.5587 206.131 71.3203 205.977 71.0586 205.875C70.7969 205.773 70.5172 205.725 70.2364 205.733Z" fill="white"/>
<path d="M90.5364 179.78C90.153 180.194 89.94 180.738 89.94 181.303C89.94 181.867 90.153 182.411 90.5364 182.826C90.9357 183.181 91.4517 183.378 91.9864 183.378C92.5211 183.378 93.0371 183.181 93.4364 182.826C93.8199 182.411 94.0328 181.867 94.0328 181.303C94.0328 180.738 93.8199 180.194 93.4364 179.78C93.0403 179.418 92.5231 179.217 91.9864 179.217C91.4498 179.217 90.9325 179.418 90.5364 179.78Z" fill="white"/>
<path d="M95.6688 179.78C95.2854 180.194 95.0724 180.738 95.0724 181.303C95.0724 181.867 95.2854 182.411 95.6688 182.826C96.0681 183.181 96.5841 183.378 97.1188 183.378C97.6535 183.378 98.1695 183.181 98.5688 182.826C98.9522 182.411 99.1652 181.867 99.1652 181.303C99.1652 180.738 98.9522 180.194 98.5688 179.78C98.1727 179.418 97.6555 179.217 97.1188 179.217C96.5821 179.217 96.0649 179.418 95.6688 179.78Z" fill="white"/>
<path d="M105.631 203.24H105.819C106.271 203.24 106.761 203.219 107.29 203.178L109.115 202.99C109.72 202.917 110.284 202.823 110.826 202.708C111.262 202.622 111.691 202.504 112.109 202.354V174.397L108.875 174.991V199.86C108.451 199.988 108.019 200.089 107.582 200.163C106.939 200.29 106.286 200.353 105.631 200.351H101.657V187.395C100.634 187.044 99.5883 186.765 98.5271 186.56C97.4301 186.352 96.316 186.247 95.1994 186.247C94.0833 186.245 92.9741 186.421 91.9134 186.769C90.8863 187.1 89.9334 187.628 89.1073 188.323C88.2691 189.043 87.6026 189.941 87.1566 190.952C86.6429 192.128 86.3936 193.403 86.4264 194.686C86.4262 195.728 86.6172 196.76 86.9897 197.732C87.3415 198.7 87.8842 199.587 88.5857 200.34H83.5472C82.8924 200.341 82.2391 200.278 81.5965 200.152C81.1629 200.079 80.7343 199.978 80.3134 199.85V174.386L77.0796 174.981V202.374C77.5095 202.521 77.9486 202.64 78.394 202.729C78.9364 202.844 79.4997 202.938 80.0943 203.011C80.6889 203.084 81.2836 203.146 81.899 203.198C82.5145 203.251 82.9422 203.261 83.3595 203.261H105.631V203.24ZM98.4228 200.34H94.4066C93.7341 200.404 93.0561 200.303 92.4311 200.047C91.806 199.791 91.2525 199.387 90.8181 198.869C90.0544 197.71 89.6883 196.333 89.7749 194.947C89.7511 194.033 89.8889 193.122 90.1818 192.256C90.3934 191.594 90.7498 190.989 91.2249 190.482C91.6811 190.04 92.235 189.711 92.8418 189.523C93.4795 189.321 94.1446 189.219 94.8134 189.22C95.4106 189.22 96.0069 189.265 96.5972 189.356C97.2231 189.439 97.8282 189.543 98.4228 189.669V200.34Z" fill="white"/>
<path d="M117.68 203.24H120.913V174.386L117.68 174.981V203.24Z" fill="white"/>
<path d="M141.62 182.825C142.008 182.413 142.224 181.869 142.224 181.302C142.224 180.736 142.008 180.192 141.62 179.779C141.232 179.406 140.714 179.198 140.175 179.198C139.637 179.198 139.119 179.406 138.731 179.779C138.343 180.192 138.127 180.736 138.127 181.302C138.127 181.869 138.343 182.413 138.731 182.825C139.127 183.182 139.642 183.38 140.175 183.38C140.709 183.38 141.224 183.182 141.62 182.825Z" fill="white"/>
<path d="M146.753 182.826C147.136 182.411 147.349 181.867 147.349 181.303C147.349 180.738 147.136 180.194 146.753 179.78C146.357 179.418 145.839 179.217 145.303 179.217C144.766 179.217 144.249 179.418 143.853 179.78C143.469 180.194 143.256 180.738 143.256 181.303C143.256 181.867 143.469 182.411 143.853 182.826C144.252 183.181 144.768 183.378 145.303 183.378C145.837 183.378 146.353 183.181 146.753 182.826Z" fill="white"/>
<path d="M160.815 209.896C161.352 209.902 161.872 209.7 162.265 209.332C162.648 208.918 162.861 208.374 162.861 207.809C162.861 207.245 162.648 206.701 162.265 206.286C161.865 205.931 161.349 205.734 160.815 205.734C160.28 205.734 159.764 205.931 159.365 206.286C158.981 206.701 158.768 207.245 158.768 207.809C158.768 208.374 158.981 208.918 159.365 209.332C159.557 209.517 159.784 209.662 160.033 209.759C160.282 209.856 160.548 209.902 160.815 209.896Z" fill="white"/>
<path d="M154.232 206.286C153.849 206.701 153.636 207.245 153.636 207.809C153.636 208.374 153.849 208.918 154.232 209.332C154.628 209.695 155.145 209.895 155.682 209.895C156.219 209.895 156.736 209.695 157.132 209.332C157.516 208.918 157.729 208.374 157.729 207.809C157.729 207.245 157.516 206.701 157.132 206.286C156.733 205.931 156.217 205.734 155.682 205.734C155.147 205.734 154.631 205.931 154.232 206.286Z" fill="white"/>
<path d="M159.886 202.374V185.986L156.642 186.581V199.85C155.595 200.161 154.51 200.326 153.418 200.34H151.144C150.874 200.354 150.606 200.287 150.374 200.147C150.141 200.008 149.956 199.803 149.84 199.558C149.522 198.782 149.383 197.944 149.434 197.106V187.395C149.11 187.269 148.693 187.144 148.192 187.009C147.692 186.873 147.149 186.748 146.554 186.633C145.96 186.518 145.365 186.435 144.729 186.362C144.12 186.283 143.507 186.245 142.893 186.247C141.498 186.207 140.112 186.477 138.835 187.04C137.786 187.523 136.859 188.236 136.123 189.126C135.424 189.996 134.912 191.001 134.621 192.078C134.309 193.174 134.151 194.308 134.151 195.448C134.148 196.475 134.31 197.497 134.631 198.473C134.946 199.432 135.438 200.324 136.081 201.102C136.763 201.895 137.61 202.529 138.564 202.959C140.261 203.669 142.134 203.851 143.936 203.48C144.438 203.367 144.928 203.203 145.397 202.99C145.807 202.808 146.202 202.592 146.575 202.343L147.535 201.696C148.019 202.282 148.676 202.699 149.413 202.886C150.343 203.122 151.301 203.234 152.261 203.219H153.596C154.041 203.219 154.531 203.199 155.067 203.157L156.892 202.969C157.497 202.896 158.071 202.802 158.603 202.687C159.038 202.615 159.467 202.51 159.886 202.374ZM144.771 200.236C143.942 200.594 143.044 200.765 142.142 200.737C141.423 200.758 140.708 200.611 140.056 200.309C139.492 200.04 138.997 199.648 138.606 199.162C138.211 198.667 137.927 198.095 137.771 197.482C137.594 196.836 137.506 196.17 137.51 195.5C137.507 194.709 137.601 193.921 137.792 193.153C137.958 192.442 138.259 191.769 138.679 191.171C139.088 190.585 139.631 190.105 140.264 189.773C140.977 189.41 141.77 189.23 142.57 189.251C142.935 189.251 143.321 189.251 143.717 189.304L144.812 189.418C145.107 189.45 145.4 189.499 145.689 189.564L146.21 189.7V197.002C146.201 197.776 146.274 198.549 146.429 199.308C145.907 199.66 145.352 199.961 144.771 200.205V200.236Z" fill="white"/>
<path d="M170.923 203.605C170.949 204.359 170.829 205.11 170.568 205.817C170.375 206.347 170.048 206.817 169.619 207.183C169.218 207.504 168.751 207.732 168.252 207.851C167.716 207.978 167.166 208.041 166.615 208.039C166.217 208.037 165.819 208.009 165.425 207.955L164.236 207.809L163.788 210.636C164.773 210.885 165.786 211.011 166.802 211.012C167.737 211.016 168.667 210.889 169.567 210.636C170.425 210.402 171.225 209.989 171.914 209.426C172.616 208.836 173.176 208.094 173.552 207.256C173.984 206.22 174.19 205.103 174.157 203.981V185.986L170.923 186.581V203.605Z" fill="white"/>
<path d="M214.131 178.434C214.322 178.246 214.471 178.019 214.566 177.769C214.661 177.519 214.702 177.251 214.684 176.984C214.697 176.72 214.654 176.456 214.559 176.21C214.463 175.964 214.318 175.741 214.131 175.554C213.756 175.207 213.265 175.014 212.754 175.014C212.243 175.014 211.751 175.207 211.377 175.554C211.19 175.741 211.044 175.964 210.949 176.21C210.854 176.456 210.811 176.72 210.824 176.984C210.806 177.251 210.846 177.519 210.942 177.769C211.037 178.019 211.186 178.246 211.377 178.434C211.758 178.768 212.247 178.952 212.754 178.952C213.261 178.952 213.75 178.768 214.131 178.434Z" fill="white"/>
<path d="M208.925 179.977C208.736 180.164 208.588 180.389 208.491 180.637C208.394 180.885 208.35 181.151 208.362 181.417C208.347 181.683 208.39 181.95 208.487 182.198C208.584 182.447 208.734 182.671 208.925 182.857C209.306 183.191 209.796 183.375 210.302 183.375C210.809 183.375 211.299 183.191 211.679 182.857C211.868 182.669 212.014 182.444 212.109 182.196C212.205 181.948 212.247 181.682 212.232 181.417C212.252 181.156 212.215 180.893 212.126 180.647C212.037 180.401 211.897 180.176 211.714 179.988C211.532 179.8 211.312 179.652 211.069 179.555C210.825 179.458 210.564 179.413 210.302 179.424C210.048 179.42 209.794 179.467 209.558 179.562C209.321 179.657 209.106 179.798 208.925 179.977Z" fill="white"/>
<path d="M215.205 183.378C215.458 183.386 215.709 183.344 215.946 183.255C216.182 183.165 216.398 183.03 216.582 182.856C216.774 182.671 216.924 182.446 217.021 182.198C217.118 181.95 217.161 181.683 217.146 181.417C217.158 181.151 217.114 180.885 217.017 180.637C216.92 180.389 216.772 180.164 216.582 179.977C216.309 179.698 215.957 179.508 215.573 179.433C215.189 179.358 214.791 179.402 214.433 179.558C214.074 179.714 213.772 179.975 213.565 180.307C213.358 180.639 213.257 181.026 213.275 181.417C213.261 181.682 213.303 181.948 213.398 182.196C213.493 182.444 213.64 182.669 213.828 182.856C214.012 183.03 214.228 183.165 214.465 183.255C214.701 183.344 214.953 183.386 215.205 183.378Z" fill="white"/>
<path d="M224.281 179.779C223.893 180.192 223.677 180.736 223.677 181.302C223.677 181.869 223.893 182.413 224.281 182.825C224.677 183.182 225.192 183.38 225.726 183.38C226.259 183.38 226.774 183.182 227.17 182.825C227.558 182.413 227.774 181.869 227.774 181.302C227.774 180.736 227.558 180.192 227.17 179.779C226.782 179.406 226.264 179.198 225.726 179.198C225.187 179.198 224.669 179.406 224.281 179.779Z" fill="white"/>
<path d="M219.19 179.78C218.807 180.194 218.594 180.738 218.594 181.303C218.594 181.867 218.807 182.411 219.19 182.826C219.589 183.181 220.105 183.378 220.64 183.378C221.175 183.378 221.691 183.181 222.09 182.826C222.474 182.411 222.687 181.867 222.687 181.303C222.687 180.738 222.474 180.194 222.09 179.78C221.694 179.418 221.177 179.217 220.64 179.217C220.103 179.217 219.586 179.418 219.19 179.78Z" fill="white"/>
<path d="M229.006 203.23C229.355 203.229 229.703 203.208 230.049 203.167C230.498 203.167 230.936 203.052 231.374 202.979C231.793 202.91 232.208 202.816 232.616 202.698C232.97 202.6 233.318 202.482 233.659 202.343C235.017 202.951 236.49 203.257 237.978 203.24C238.745 203.238 239.511 203.157 240.262 203C240.946 202.857 241.61 202.637 242.244 202.343C242.856 202.613 243.492 202.826 244.143 202.979C244.961 203.16 245.798 203.248 246.636 203.24C247.183 203.238 247.73 203.206 248.274 203.146C248.868 203.084 249.442 203.011 249.984 202.917C250.527 202.823 251.028 202.739 251.466 202.646C251.822 202.578 252.171 202.476 252.509 202.343V185.986L249.275 186.581V199.85C248.406 200.183 247.483 200.349 246.552 200.34C245.65 200.345 244.754 200.179 243.913 199.85V185.986L240.679 186.581V199.85C239.815 200.184 238.894 200.35 237.967 200.34C237.064 200.346 236.169 200.179 235.328 199.85V185.986L232.094 186.581V199.85C231.585 200.048 231.052 200.174 230.508 200.225C229.962 200.295 229.411 200.333 228.86 200.34H228.109C227.454 200.341 226.801 200.278 226.158 200.152C225.725 200.077 225.297 199.976 224.875 199.85V185.986L221.642 186.581V199.85C220.591 200.159 219.503 200.324 218.408 200.34H217.667C216.572 200.324 215.484 200.159 214.433 199.85V185.986L211.199 186.581V199.85C210.778 199.976 210.35 200.077 209.916 200.152C209.274 200.278 208.62 200.341 207.966 200.34H207.215C206.385 200.348 205.555 200.3 204.732 200.194C204.054 200.09 203.584 200.006 203.313 199.933C203.918 199.118 204.377 198.204 204.669 197.232C204.981 196.239 205.139 195.205 205.139 194.165C205.141 193.162 204.982 192.165 204.669 191.213C204.377 190.281 203.898 189.418 203.261 188.678C202.585 187.92 201.752 187.319 200.82 186.915C199.705 186.444 198.503 186.216 197.294 186.247C195.31 186.143 193.365 186.825 191.88 188.146C190.531 189.411 189.856 191.372 189.856 194.029V199.86C189.435 199.987 189.007 200.088 188.573 200.163C187.931 200.289 187.277 200.352 186.622 200.351H185.871C185.217 200.352 184.563 200.289 183.921 200.163C183.487 200.088 183.059 199.987 182.638 199.86V174.386L179.404 174.981V202.374C179.837 202.521 180.28 202.64 180.729 202.729C181.257 202.84 181.82 202.934 182.418 203.011C183.013 203.084 183.618 203.146 184.223 203.198C184.828 203.251 185.266 203.261 185.694 203.261H186.727C187.56 203.26 188.391 203.183 189.21 203.032C189.948 202.881 190.671 202.661 191.369 202.374C192.146 202.647 192.941 202.867 193.747 203.032C194.642 203.197 195.55 203.277 196.46 203.272C197.252 203.277 198.041 203.175 198.807 202.969C199.496 202.783 200.159 202.51 200.778 202.155C201.656 202.547 202.582 202.821 203.532 202.969C204.663 203.161 205.807 203.259 206.954 203.261H208.06C208.896 203.26 209.73 203.183 210.553 203.032C211.324 202.887 212.078 202.667 212.806 202.374C213.51 202.664 214.24 202.884 214.986 203.032C215.812 203.183 216.65 203.26 217.49 203.261H218.606C219.442 203.26 220.277 203.183 221.099 203.032C221.831 202.88 222.547 202.66 223.238 202.374C223.938 202.664 224.664 202.884 225.407 203.032C226.237 203.183 227.078 203.26 227.921 203.261H229.038L229.006 203.23ZM200.486 198.89C199.974 199.404 199.356 199.8 198.675 200.051C197.994 200.301 197.266 200.4 196.543 200.34C195.362 200.323 194.188 200.158 193.048 199.85V193.946C192.968 192.681 193.338 191.428 194.092 190.409C194.493 189.992 194.981 189.669 195.523 189.463C196.064 189.257 196.644 189.174 197.221 189.22C200.246 189.22 201.759 191.066 201.759 194.759C201.854 196.246 201.401 197.715 200.486 198.89Z" fill="white"/>
<path d="M258.966 182.419V199.892C258.551 200.01 258.13 200.104 257.704 200.173C257.129 200.277 256.546 200.333 255.962 200.34H255.805V203.24H255.962C256.792 203.242 257.62 203.162 258.434 203C259.148 202.845 259.846 202.625 260.52 202.343C261.221 202.631 261.947 202.851 262.69 203C263.581 203.167 264.486 203.247 265.392 203.24C265.882 203.24 266.435 203.24 267.04 203.167C267.645 203.094 268.261 203.042 268.866 202.959C269.471 202.875 270.044 202.771 270.576 202.646C271.012 202.549 271.441 202.424 271.86 202.27V174.386L268.626 174.981V199.892C268.203 200.008 267.775 200.102 267.343 200.173C266.048 200.396 264.725 200.396 263.431 200.173C263.002 200.104 262.577 200.01 262.158 199.892V181.824L258.966 182.419Z" fill="white"/>
<path d="M277.858 203.24H281.092V174.386L277.858 174.981V203.24Z" fill="white"/>
<path d="M13.7594 238.885C13.8765 240.123 13.5472 241.363 12.831 242.379C12.4252 242.758 11.9441 243.046 11.4192 243.226C10.8944 243.406 10.3374 243.473 9.7849 243.423C8.86821 243.431 7.95831 243.265 7.10397 242.932C6.30544 242.626 5.53424 242.252 4.79857 241.816L2.86871 246.323C3.80036 246.934 4.81115 247.414 5.87303 247.752C7.28087 248.188 8.74947 248.396 10.223 248.367C11.7753 248.417 13.3227 248.169 14.7817 247.637C15.8536 247.246 16.812 246.595 17.5711 245.743C18.3302 244.892 18.8664 243.865 19.1317 242.755C19.4214 241.585 19.5651 240.383 19.5594 239.177V222.09H13.7594V238.885Z" fill="white"/>
<path d="M38.5033 229.935C37.7763 229.194 36.8765 228.646 35.8849 228.339C34.5615 227.93 33.1803 227.74 31.7957 227.776C31.1489 227.776 30.5126 227.776 29.8763 227.87C29.24 227.963 28.6453 228.005 28.0716 228.089C27.4979 228.172 26.9763 228.276 26.4964 228.391C26.0166 228.506 25.6097 228.61 25.2864 228.704L25.9957 233.169C26.7675 232.906 27.5646 232.724 28.3741 232.626C29.2962 232.489 30.2271 232.419 31.1594 232.418C32.2234 232.311 33.2876 232.618 34.1324 233.273C34.4229 233.574 34.6487 233.93 34.7958 234.322C34.9429 234.713 35.0083 235.13 34.9878 235.547V236.058C34.5423 235.945 34.089 235.865 33.6317 235.818C32.9941 235.752 32.3533 235.72 31.7123 235.725C30.678 235.725 29.6467 235.833 28.6349 236.048C27.7015 236.24 26.8085 236.593 25.9957 237.091C25.24 237.526 24.6052 238.142 24.1493 238.885C23.6683 239.775 23.4308 240.775 23.4608 241.785C23.429 242.822 23.6323 243.853 24.0554 244.8C24.4391 245.604 25.0295 246.292 25.7662 246.793C26.5756 247.312 27.4796 247.667 28.4263 247.836C29.559 248.067 30.7128 248.178 31.8687 248.17C33.5863 248.192 35.3029 248.073 37.0011 247.815C38.4094 247.585 39.5151 247.377 40.3079 247.199V235.756C40.3203 234.64 40.1835 233.528 39.9011 232.449C39.6487 231.509 39.1686 230.645 38.5033 229.935ZM34.9878 243.84C34.5937 243.899 34.1967 243.938 33.7986 243.955C33.3118 243.955 32.7902 243.955 32.2338 243.955C31.4044 243.996 30.5784 243.824 29.8346 243.454C29.5382 243.262 29.3005 242.992 29.1478 242.674C28.995 242.356 28.9331 242.001 28.9687 241.65C28.9526 241.257 29.0543 240.868 29.2608 240.534C29.4667 240.23 29.7517 239.988 30.0849 239.835C30.4673 239.66 30.8763 239.55 31.295 239.511C32.1887 239.4 33.0927 239.4 33.9864 239.511C34.3364 239.542 34.6846 239.59 35.0295 239.657L34.9878 243.84Z" fill="white"/>
<path d="M60.4202 230.342C59.7211 229.513 58.8189 228.881 57.8019 228.506C56.4646 228.027 55.049 227.804 53.6292 227.848C52.0612 227.847 50.4954 227.966 48.9454 228.203C47.7182 228.387 46.5026 228.641 45.3047 228.965V247.856H50.844V232.762C51.1882 232.762 51.5846 232.668 52.0332 232.626C52.4817 232.584 52.899 232.574 53.2954 232.574C53.7959 232.507 54.3051 232.573 54.772 232.766C55.2389 232.958 55.6471 233.269 55.9555 233.669C56.5199 234.847 56.7646 236.153 56.6648 237.456V247.835H62.204V236.799C62.2164 235.573 62.0798 234.351 61.7972 233.158C61.554 232.128 61.0835 231.166 60.4202 230.342Z" fill="white"/>
<path d="M80.9602 229.935C80.2352 229.192 79.3347 228.643 78.3418 228.339C77.0185 227.93 75.6373 227.74 74.2526 227.776C73.6059 227.776 72.9695 227.776 72.3332 227.87C71.6969 227.964 71.1023 228.005 70.539 228.089C69.9756 228.172 69.4332 228.277 68.9533 228.391L67.7433 228.704L68.4526 233.169C69.2244 232.906 70.0215 232.724 70.831 232.627C71.7531 232.489 72.684 232.419 73.6163 232.418C74.681 232.304 75.748 232.611 76.5893 233.273C76.8798 233.574 77.1056 233.931 77.2527 234.322C77.3998 234.713 77.4652 235.13 77.4447 235.547V236.059C76.9994 235.944 76.5461 235.864 76.0886 235.819C75.4545 235.752 74.8172 235.721 74.1796 235.725C73.128 235.722 72.079 235.831 71.0501 236.048C70.1173 236.243 69.2246 236.595 68.4109 237.091C67.6704 237.531 67.0504 238.148 66.6062 238.886C66.1334 239.777 65.8998 240.777 65.9282 241.786C65.8964 242.822 66.0996 243.853 66.5228 244.8C66.8999 245.609 67.4917 246.298 68.2336 246.793C69.0398 247.311 69.9401 247.665 70.8832 247.836C72.0159 248.067 73.1697 248.179 74.3256 248.17C76.0433 248.193 77.7599 248.074 79.458 247.815C80.8663 247.586 81.9721 247.377 82.7649 247.2V235.756C82.7772 234.641 82.6404 233.528 82.358 232.449C82.1097 231.507 81.6291 230.643 80.9602 229.935ZM77.4447 243.841C77.0506 243.899 76.6536 243.938 76.2555 243.955C75.7652 243.955 75.2123 243.955 74.7012 243.955C73.8717 243.997 73.0453 243.825 72.3019 243.455C72.0019 243.266 71.7608 242.996 71.6059 242.677C71.4511 242.359 71.3886 242.003 71.4256 241.65C71.4133 241.256 71.5186 240.867 71.7282 240.534C71.9338 240.234 72.2143 239.993 72.5418 239.835C72.9222 239.649 73.3314 239.529 73.7519 239.48C74.2395 239.416 74.7309 239.384 75.2228 239.386C75.6307 239.387 76.0382 239.411 76.4433 239.459C76.7933 239.49 77.1415 239.538 77.4864 239.605L77.4447 243.841Z" fill="white"/>
<path d="M100.582 222.09H96.9728V247.856H100.582V222.09Z" fill="white"/>
<path d="M118.66 234.713C118.841 235.718 118.925 236.738 118.911 237.759V247.877H122.363V236.997C122.374 235.784 122.248 234.573 121.988 233.388C121.777 232.369 121.343 231.411 120.715 230.582C120.071 229.777 119.23 229.152 118.274 228.767C117.055 228.292 115.753 228.068 114.446 228.109C112.927 228.096 111.409 228.208 109.908 228.443C108.594 228.673 107.54 228.881 106.779 229.079V247.856H110.242V231.583L110.847 231.468L111.817 231.343C112.172 231.343 112.558 231.27 112.954 231.249C113.35 231.228 113.736 231.249 114.102 231.249C114.885 231.231 115.665 231.351 116.407 231.604C116.985 231.797 117.495 232.152 117.878 232.626C118.291 233.254 118.559 233.967 118.66 234.713Z" fill="white"/>
<path d="M139.023 228.516C138.72 229.736 138.376 231.03 137.98 232.407C137.583 233.784 137.145 235.15 136.676 236.496C136.206 237.842 135.758 239.156 135.288 240.418C134.819 241.68 134.37 242.807 133.953 243.798C133.529 242.804 133.08 241.677 132.607 240.418C132.138 239.156 131.668 237.852 131.22 236.496C130.771 235.14 130.323 233.784 129.916 232.407C129.509 231.03 129.154 229.736 128.873 228.516H125.159C126.096 232.054 127.231 235.537 128.56 238.947C129.867 242.272 131.126 245.248 132.336 247.877H135.466C136.683 245.248 137.941 242.272 139.242 238.947C140.571 235.537 141.706 232.054 142.643 228.516H139.023Z" fill="white"/>
<path d="M154.305 248.273C155.512 248.287 156.716 248.161 157.894 247.898C158.656 247.747 159.398 247.509 160.105 247.188L159.625 244.288C159.019 244.548 158.39 244.754 157.748 244.904C156.738 245.131 155.705 245.236 154.67 245.217C153.814 245.29 152.951 245.19 152.134 244.923C151.317 244.656 150.561 244.228 149.913 243.662C148.807 242.391 148.19 240.768 148.171 239.083H161.409C161.421 238.868 161.421 238.652 161.409 238.436V237.862C161.409 234.538 160.714 232.066 159.323 230.446C158.57 229.622 157.643 228.978 156.608 228.561C155.574 228.144 154.459 227.964 153.345 228.036C152.223 228.035 151.111 228.251 150.07 228.672C149.005 229.095 148.041 229.738 147.243 230.56C146.389 231.466 145.719 232.529 145.271 233.69C144.753 235.127 144.502 236.648 144.531 238.175C144.515 239.539 144.708 240.897 145.104 242.202C145.46 243.378 146.065 244.463 146.878 245.384C147.713 246.302 148.748 247.016 149.903 247.47C151.304 248.023 152.799 248.295 154.305 248.273ZM148.703 234.326C148.933 233.703 149.268 233.125 149.694 232.615C150.125 232.115 150.65 231.704 151.238 231.405C151.888 231.092 152.603 230.935 153.325 230.946C153.958 230.917 154.59 231.037 155.168 231.299C155.747 231.56 156.255 231.954 156.652 232.448C157.491 233.55 157.906 234.916 157.821 236.298H148.234C148.316 235.635 148.473 234.984 148.703 234.357V234.326Z" fill="white"/>
<path d="M177.004 238.885C176.445 238.413 175.824 238.02 175.158 237.717C174.438 237.383 173.625 237.039 172.707 236.673C172.018 236.423 171.424 236.194 170.923 235.964C170.48 235.777 170.063 235.535 169.681 235.244C169.37 235.01 169.114 234.711 168.93 234.368C168.766 234.019 168.684 233.637 168.69 233.252C168.672 232.883 168.761 232.516 168.946 232.196C169.131 231.875 169.404 231.616 169.734 231.447C170.516 231.053 171.382 230.856 172.258 230.873C173.22 230.856 174.181 230.961 175.116 231.186C175.719 231.334 176.306 231.54 176.869 231.802L177.495 228.829C177.297 228.756 177.025 228.672 176.66 228.568C176.295 228.464 175.888 228.38 175.419 228.286C174.949 228.192 174.438 228.13 173.896 228.067C173.352 228.005 172.805 227.974 172.258 227.973C170.416 227.871 168.594 228.401 167.094 229.476C166.496 229.924 166.006 230.501 165.66 231.164C165.314 231.827 165.121 232.56 165.095 233.307C165.069 234.054 165.211 234.798 165.51 235.484C165.809 236.169 166.258 236.779 166.823 237.268C167.359 237.716 167.956 238.085 168.597 238.363C169.275 238.676 169.984 238.979 170.735 239.281C171.898 239.708 173.008 240.268 174.042 240.95C174.368 241.172 174.634 241.471 174.816 241.82C174.998 242.17 175.091 242.559 175.085 242.953C175.105 243.322 175.017 243.688 174.832 244.007C174.647 244.325 174.372 244.583 174.042 244.748C173.056 245.174 171.984 245.363 170.912 245.3C169.745 245.34 168.578 245.188 167.46 244.852C166.583 244.56 165.957 244.33 165.561 244.184L164.925 247.157C165.57 247.411 166.228 247.63 166.896 247.814C168.209 248.138 169.56 248.282 170.912 248.242C172.899 248.362 174.876 247.882 176.587 246.865C177.237 246.415 177.761 245.805 178.108 245.095C178.455 244.384 178.614 243.597 178.569 242.807C178.592 242.016 178.454 241.228 178.162 240.491C177.902 239.876 177.506 239.327 177.004 238.885Z" fill="white"/>
<path d="M182.784 223.134V240.377C182.769 241.522 182.874 242.665 183.097 243.788C183.265 244.677 183.621 245.52 184.14 246.261C184.684 246.944 185.406 247.464 186.226 247.763C187.271 248.127 188.374 248.297 189.481 248.264C190.485 248.28 191.487 248.15 192.454 247.878C193.079 247.709 193.69 247.489 194.279 247.22L193.612 244.362L192.287 244.863C191.48 245.128 190.632 245.249 189.783 245.218C189.253 245.229 188.724 245.151 188.218 244.988C187.78 244.849 187.392 244.584 187.102 244.226C186.77 243.79 186.542 243.283 186.435 242.745C186.269 241.956 186.192 241.152 186.205 240.346V231.416H193.507V228.516H186.205V222.539L182.784 223.134Z" fill="white"/>
<path d="M222.883 230.602C222.332 229.795 221.566 229.159 220.671 228.766C219.519 228.288 218.277 228.064 217.031 228.109C216.304 228.106 215.58 228.186 214.871 228.349C214.253 228.501 213.643 228.69 213.046 228.912C212.573 229.089 212.116 229.305 211.679 229.559C211.304 229.789 211.033 229.956 210.855 230.081C210.286 229.432 209.571 228.928 208.769 228.61C207.766 228.249 206.705 228.079 205.639 228.109C204.124 228.095 202.609 228.207 201.112 228.443C199.819 228.673 198.765 228.881 197.983 229.079V247.856H201.446V231.583L202.04 231.468L203.021 231.343C203.386 231.343 203.762 231.27 204.158 231.249C204.555 231.228 204.93 231.249 205.274 231.249C205.97 231.226 206.662 231.362 207.298 231.646C207.834 231.908 208.275 232.331 208.56 232.856C208.909 233.503 209.132 234.211 209.217 234.942C209.353 235.913 209.416 236.893 209.405 237.873V247.992H212.806V236.997C212.806 236.188 212.758 235.38 212.66 234.577C212.565 233.871 212.415 233.173 212.211 232.49C212.681 232.137 213.202 231.855 213.755 231.656C214.675 231.314 215.653 231.154 216.634 231.187C217.351 231.158 218.065 231.294 218.721 231.583C219.254 231.849 219.695 232.271 219.983 232.793C220.329 233.44 220.545 234.149 220.619 234.879C220.736 235.852 220.792 236.831 220.786 237.811V247.929H224.281V236.997C224.288 235.802 224.194 234.608 223.999 233.429C223.838 232.417 223.457 231.452 222.883 230.602Z" fill="white"/>
<path d="M238.635 248.273C239.841 248.287 241.046 248.161 242.223 247.898C242.985 247.745 243.727 247.507 244.435 247.189L243.944 244.289C243.339 244.552 242.71 244.758 242.067 244.904C241.061 245.132 240.031 245.237 239 245.217C238.143 245.292 237.28 245.192 236.463 244.925C235.645 244.658 234.89 244.229 234.243 243.663C233.137 242.392 232.519 240.768 232.501 239.083H245.728C245.745 238.868 245.745 238.652 245.728 238.436V237.863C245.728 234.538 245.033 232.066 243.642 230.446C242.894 229.615 241.968 228.963 240.933 228.541C239.898 228.118 238.781 227.935 237.665 228.005C236.542 228.004 235.43 228.22 234.389 228.641C233.329 229.067 232.372 229.714 231.583 230.54C230.729 231.445 230.059 232.508 229.611 233.669C229.093 235.107 228.842 236.627 228.871 238.155C228.855 239.518 229.048 240.876 229.444 242.181C229.797 243.356 230.398 244.442 231.207 245.363C232.046 246.282 233.085 246.995 234.243 247.449C235.639 248.009 237.131 248.289 238.635 248.273ZM233.033 234.326C233.274 233.698 233.628 233.118 234.076 232.616C234.505 232.113 235.03 231.702 235.62 231.405C236.27 231.092 236.985 230.935 237.706 230.946C238.34 230.918 238.972 231.039 239.55 231.3C240.128 231.561 240.636 231.954 241.034 232.449C241.873 233.55 242.287 234.916 242.202 236.298H232.626C232.688 235.638 232.824 234.987 233.033 234.358V234.326Z" fill="white"/>
<path d="M256.921 231.197C257.318 231.197 257.704 231.197 258.079 231.197C258.863 231.18 259.643 231.3 260.385 231.552C260.963 231.76 261.467 232.134 261.835 232.626C262.256 233.253 262.53 233.966 262.638 234.713C262.81 235.719 262.89 236.738 262.878 237.759V247.878H266.341V236.997C266.352 235.784 266.226 234.573 265.966 233.388C265.747 232.37 265.309 231.413 264.683 230.582C264.042 229.773 263.201 229.147 262.242 228.767C261.023 228.291 259.721 228.067 258.413 228.11C256.897 228.097 255.383 228.209 253.886 228.443C252.571 228.673 251.518 228.882 250.756 229.08V247.857H254.209V231.583L254.825 231.469L255.795 231.343C256.15 231.267 256.525 231.218 256.921 231.197Z" fill="white"/>
<path d="M281.582 247.878C282.204 247.707 282.811 247.488 283.397 247.22L282.729 244.362L281.405 244.863C280.598 245.128 279.75 245.249 278.901 245.218C278.37 245.229 277.841 245.151 277.336 244.988C276.898 244.849 276.51 244.584 276.22 244.226C275.888 243.79 275.66 243.283 275.552 242.745C275.391 241.956 275.318 241.151 275.333 240.346V231.416H282.635V228.516H275.333V222.539L271.87 223.134V240.377C271.856 241.522 271.961 242.665 272.183 243.788C272.367 244.683 272.744 245.527 273.289 246.261C273.829 246.947 274.552 247.468 275.375 247.763C276.42 248.127 277.523 248.297 278.63 248.264C279.627 248.277 280.621 248.147 281.582 247.878Z" fill="white"/>
<path d="M108.865 277.451H96.2634V266.706H92.6541V292.472H96.2634V280.57H108.865V292.472H112.474V266.706H108.865V277.451Z" fill="white"/>
<path d="M133.171 275.448C132.371 274.55 131.385 273.838 130.281 273.362C129.125 272.877 127.884 272.627 126.63 272.627C125.376 272.627 124.135 272.877 122.979 273.362C121.877 273.836 120.894 274.548 120.1 275.448C119.261 276.379 118.622 277.473 118.222 278.661C117.309 281.368 117.309 284.299 118.222 287.006C118.624 288.19 119.263 289.28 120.1 290.209C120.894 291.108 121.877 291.821 122.979 292.295C125.317 293.261 127.943 293.261 130.281 292.295C131.385 291.818 132.371 291.106 133.171 290.209C134 289.274 134.638 288.186 135.048 287.006C135.947 284.297 135.947 281.37 135.048 278.661C134.641 277.476 134.002 276.384 133.171 275.448ZM130.636 287.966C130.155 288.562 129.546 289.044 128.855 289.374C128.163 289.705 127.407 289.877 126.64 289.877C125.874 289.877 125.117 289.705 124.426 289.374C123.735 289.044 123.126 288.562 122.645 287.966C121.683 286.406 121.174 284.609 121.174 282.776C121.174 280.943 121.683 279.147 122.645 277.586C123.126 276.99 123.735 276.509 124.426 276.178C125.117 275.847 125.874 275.676 126.64 275.676C127.407 275.676 128.163 275.847 128.855 276.178C129.546 276.509 130.155 276.99 130.636 277.586C131.598 279.147 132.107 280.943 132.107 282.776C132.107 284.609 131.598 286.406 130.636 287.966Z" fill="white"/>
<path d="M144.604 289.166C144.364 288.916 144.195 288.606 144.113 288.269C144.004 287.811 143.952 287.342 143.957 286.871V263.619L140.504 264.214V287.414C140.44 288.145 140.526 288.882 140.755 289.58C140.985 290.277 141.354 290.921 141.839 291.472C142.73 292.334 144.242 292.793 146.377 292.849L146.857 289.949C146.391 289.892 145.931 289.797 145.48 289.667C145.152 289.572 144.852 289.4 144.604 289.166Z" fill="white"/>
<path d="M163.224 273.999C162.626 273.636 161.985 273.348 161.315 273.143C159.131 272.457 156.775 272.561 154.66 273.435C153.602 273.913 152.667 274.627 151.927 275.522C151.149 276.458 150.574 277.545 150.237 278.714C149.837 280.04 149.64 281.418 149.653 282.803C149.638 284.223 149.871 285.635 150.341 286.976C150.761 288.179 151.429 289.281 152.302 290.209C153.167 291.087 154.209 291.77 155.359 292.212C156.641 292.701 158.003 292.941 159.375 292.922C160.808 292.934 162.239 292.822 163.652 292.588C164.883 292.358 165.905 292.139 166.698 291.92V263.619L163.235 264.214L163.224 273.999ZM163.224 289.458C162.745 289.589 162.257 289.683 161.764 289.74C160.978 289.836 160.187 289.881 159.396 289.876C158.564 289.912 157.734 289.765 156.964 289.446C156.195 289.127 155.504 288.643 154.942 288.029C153.739 286.567 153.139 284.702 153.262 282.813C153.258 281.877 153.359 280.942 153.565 280.028C153.739 279.223 154.064 278.458 154.524 277.775C154.97 277.146 155.565 276.637 156.256 276.294C157.049 275.911 157.922 275.725 158.801 275.751C159.693 275.744 160.578 275.907 161.409 276.231C162.064 276.483 162.677 276.835 163.224 277.274V289.458Z" fill="white"/>
<path d="M174.344 265.111C174.054 265.103 173.765 265.153 173.494 265.259C173.224 265.364 172.977 265.523 172.769 265.726C172.549 265.938 172.376 266.195 172.263 266.479C172.149 266.764 172.098 267.069 172.112 267.374C172.098 267.682 172.149 267.988 172.262 268.274C172.376 268.56 172.548 268.819 172.769 269.033C173.192 269.439 173.759 269.66 174.344 269.648C174.933 269.659 175.503 269.438 175.93 269.033C176.147 268.817 176.317 268.558 176.429 268.272C176.54 267.986 176.59 267.681 176.577 267.374C176.591 267.076 176.544 266.778 176.437 266.498C176.331 266.219 176.167 265.965 175.957 265.753C175.748 265.54 175.496 265.373 175.218 265.262C174.941 265.152 174.643 265.1 174.344 265.111Z" fill="white"/>
<path d="M176.086 273.143H172.634V292.472H176.086V273.143Z" fill="white"/>
<path d="M196.001 275.198C195.359 274.394 194.522 273.769 193.57 273.383C192.351 272.908 191.049 272.685 189.742 272.725C188.222 272.712 186.705 272.824 185.204 273.059C183.889 273.289 182.836 273.497 182.074 273.695V292.472H185.527V276.147L186.143 276.043C186.435 275.99 186.748 275.949 187.113 275.907L188.25 275.813H189.397C190.18 275.792 190.96 275.908 191.703 276.157C192.303 276.378 192.822 276.775 193.194 277.294C193.606 277.925 193.877 278.636 193.987 279.381C194.164 280.39 194.245 281.413 194.227 282.437V292.546H197.69V281.655C197.702 280.445 197.576 279.238 197.315 278.056C197.1 277.016 196.65 276.038 196.001 275.198Z" fill="white"/>
<path d="M211.679 272.726C210.33 272.706 208.989 272.955 207.736 273.456C206.619 273.903 205.612 274.586 204.784 275.459C203.959 276.335 203.329 277.377 202.938 278.515C202.075 281.127 202.075 283.947 202.938 286.558C203.333 287.647 203.951 288.642 204.753 289.479C205.512 290.252 206.435 290.844 207.454 291.211C208.51 291.583 209.621 291.77 210.74 291.763C211.758 291.786 212.771 291.631 213.734 291.304C214.335 291.108 214.915 290.853 215.466 290.543V291.357C215.528 292.066 215.44 292.78 215.206 293.453C214.972 294.125 214.599 294.74 214.11 295.258C212.828 296.196 211.248 296.634 209.666 296.489C208.615 296.492 207.566 296.387 206.537 296.176C205.667 295.999 204.813 295.755 203.981 295.446L203.355 298.461C204.272 298.765 205.21 299.002 206.161 299.17C207.297 299.372 208.449 299.469 209.603 299.462C212.719 299.462 215.049 298.794 216.593 297.459C218.126 296.113 218.898 293.965 218.898 290.981V273.738C218.07 273.536 217.059 273.317 215.862 273.08C214.482 272.833 213.082 272.714 211.679 272.726ZM215.466 287.486C214.916 287.891 214.303 288.202 213.651 288.404C212.833 288.671 211.976 288.801 211.116 288.79C210.449 288.789 209.788 288.665 209.165 288.425C208.527 288.173 207.956 287.776 207.496 287.267C206.981 286.695 206.587 286.025 206.338 285.296C206.034 284.374 205.89 283.408 205.911 282.438C205.82 280.695 206.357 278.978 207.423 277.597C207.948 276.983 208.609 276.5 209.353 276.185C210.097 275.87 210.904 275.732 211.711 275.782C212.502 275.771 213.293 275.812 214.079 275.907C214.546 275.973 215.01 276.067 215.466 276.189V287.486Z" fill="white"/>
<path d="M249.233 289.354C247.877 289.737 246.47 289.913 245.061 289.875C243.762 289.904 242.473 289.648 241.284 289.124C240.233 288.654 239.31 287.939 238.593 287.038C237.842 286.072 237.292 284.965 236.976 283.783C236.601 282.424 236.419 281.02 236.434 279.61C236.416 278.158 236.623 276.712 237.049 275.323C237.406 274.128 238.006 273.02 238.812 272.068C239.567 271.167 240.52 270.453 241.597 269.982C242.764 269.497 244.017 269.256 245.28 269.273C245.923 269.271 246.566 269.327 247.199 269.44C247.789 269.54 248.372 269.683 248.941 269.867C249.473 270.045 249.984 270.212 250.381 270.389C250.716 270.517 251.037 270.677 251.341 270.869L252.384 267.896C252.238 267.802 251.966 267.645 251.57 267.447C251.071 267.21 250.555 267.012 250.026 266.853C249.293 266.635 248.548 266.46 247.794 266.331C246.842 266.177 245.879 266.104 244.915 266.112C243.282 266.097 241.663 266.402 240.147 267.009C238.68 267.593 237.351 268.478 236.246 269.607C235.112 270.827 234.235 272.264 233.669 273.831C232.963 275.661 232.609 277.608 232.626 279.569C232.594 281.52 232.89 283.463 233.502 285.317C234.02 286.868 234.863 288.29 235.975 289.489C237.039 290.634 238.348 291.526 239.803 292.097C241.378 292.711 243.057 293.016 244.748 292.994C245.718 292.999 246.687 292.936 247.648 292.807C248.434 292.698 249.214 292.548 249.984 292.358C250.556 292.216 251.117 292.035 251.664 291.815C251.987 291.693 252.298 291.539 252.592 291.356L251.664 288.383C250.875 288.759 250.064 289.083 249.233 289.354Z" fill="white"/>
<path d="M270.483 275.448C269.683 274.55 268.697 273.838 267.593 273.362C266.437 272.877 265.196 272.627 263.942 272.627C262.688 272.627 261.447 272.877 260.291 273.362C259.187 273.838 258.201 274.55 257.401 275.448C256.569 276.382 255.934 277.475 255.534 278.661C254.621 281.368 254.621 284.299 255.534 287.006C255.937 288.187 256.572 289.276 257.401 290.209C258.201 291.106 259.187 291.818 260.291 292.295C262.629 293.261 265.255 293.261 267.593 292.295C268.697 291.818 269.683 291.106 270.483 290.209C271.312 289.274 271.95 288.186 272.36 287.006C273.259 284.297 273.259 281.37 272.36 278.661C271.953 277.476 271.314 276.384 270.483 275.448ZM267.948 287.966C267.467 288.562 266.858 289.044 266.167 289.374C265.475 289.705 264.719 289.877 263.952 289.877C263.186 289.877 262.429 289.705 261.738 289.374C261.047 289.044 260.438 288.562 259.957 287.966C258.995 286.406 258.486 284.609 258.486 282.776C258.486 280.943 258.995 279.147 259.957 277.586C260.438 276.99 261.047 276.509 261.738 276.178C262.429 275.847 263.186 275.676 263.952 275.676C264.719 275.676 265.475 275.847 266.167 276.178C266.858 276.509 267.467 276.99 267.948 277.586C268.91 279.147 269.419 280.943 269.419 282.776C269.419 284.609 268.91 286.406 267.948 287.966Z" fill="white"/>
<path d="M279.496 287.977C279.156 287.958 278.816 288.015 278.5 288.143C278.185 288.271 277.901 288.467 277.67 288.717C277.234 289.196 276.996 289.822 277.002 290.47C276.996 291.114 277.235 291.736 277.67 292.212C277.901 292.462 278.185 292.658 278.5 292.786C278.816 292.914 279.156 292.971 279.496 292.952C279.834 292.972 280.173 292.916 280.487 292.788C280.801 292.66 281.083 292.463 281.311 292.212C281.753 291.74 281.996 291.116 281.989 290.47C281.996 289.82 281.753 289.193 281.311 288.717C281.083 288.466 280.801 288.269 280.487 288.141C280.173 288.013 279.834 287.957 279.496 287.977Z" fill="white"/>
<path d="M474.495 260.322C470.524 259.498 466.389 260.171 462.884 262.21C469.508 252.926 475.663 243.35 481.661 233.586C487.847 223.467 494.179 213.202 497.611 201.748C503.13 183.138 498.654 163.996 489.694 147.274C481.119 131.314 469.101 117.481 457.011 104.119C451.253 97.7448 445.536 91.3189 439.736 84.9764C433.582 78.2271 426.999 71.8325 421.554 64.4782C415.045 55.6843 410.851 45.7012 410.475 34.6854C410.293 28.8374 411.032 22.9972 412.666 17.3792C413.402 14.8179 414.308 12.3087 415.378 9.86844C415.65 9.27383 415.869 8.77311 416.056 8.31412C417.381 6.1652 418.716 4.01627 419.927 1.80476C420.062 1.56483 421.418 -0.886609 420.542 0.344328C413.705 10.0793 407.435 20.2009 401.765 30.6587C397.517 38.2893 394.949 46.7401 394.233 55.4444C392.742 76.1512 404.383 91.1207 417.767 105.36C429.659 118.034 441.52 130.917 452.682 144.239C463.844 157.56 474.589 172.477 480.128 189.356C483.435 199.485 484.77 210.365 482.944 220.922C481.847 226.933 479.971 232.775 477.363 238.301C476.717 239.188 476.07 240.064 475.413 240.94C477.512 237.395 479.013 233.529 479.856 229.497C481.672 219.357 478.146 209.238 473.201 200.497C465.064 186.08 453.131 174.178 441.291 162.797C419.176 141.526 392.575 120.246 380.787 91.0268C377.465 82.9378 375.894 74.2371 376.176 65.4972C376.458 56.7573 378.588 48.1763 382.425 40.3185C383.249 38.5659 380.943 42.1649 381.382 41.5181C379.629 44.053 378.012 46.7339 376.385 49.3314C373.047 54.6516 369.218 60.003 366.516 65.6883C337.725 126.38 409.151 168.962 442.949 207.674C449.323 214.976 455.28 222.914 459.4 231.729C461.863 236.732 463.4 242.139 463.938 247.689C464.138 250.181 464.051 252.687 463.677 255.159C463.485 256.42 463.21 257.668 462.853 258.893C462.656 259.65 462.415 260.396 462.133 261.125L461.612 262.346C461.319 262.805 461.038 263.274 460.746 263.744C457.844 266.111 455.834 269.394 455.045 273.054C454.256 276.715 454.735 280.535 456.404 283.887C458.073 287.239 460.832 289.924 464.228 291.5C467.625 293.077 471.456 293.452 475.094 292.563C478.731 291.674 481.959 289.575 484.245 286.61C486.532 283.645 487.742 279.99 487.678 276.246C487.613 272.502 486.276 268.891 483.888 266.007C481.5 263.123 478.202 261.137 474.536 260.374L474.495 260.322Z" fill="white"/>
<path d="M398.49 195.875C386.618 181.991 373.756 169.118 361.488 155.619C353.007 146.294 345.591 135.57 342.357 123.281C338.361 108.093 341.574 92.6227 347.833 78.5295L348.146 77.8306C348.219 77.6637 348.292 77.4863 348.376 77.309C348.553 76.923 348.574 76.8083 348.511 76.8396C348.728 76.2148 348.906 75.5772 349.043 74.9306C349.854 71.0784 349.265 67.0634 347.381 63.6067C345.498 60.1501 342.443 57.4783 338.767 56.0713C335.09 54.6644 331.032 54.6144 327.322 55.9305C323.612 57.2465 320.493 59.8423 318.525 63.2515C316.557 66.6608 315.869 70.6601 316.585 74.531C317.3 78.402 319.373 81.8909 322.43 84.3711C325.487 86.8513 329.328 88.1602 333.263 88.0627C337.199 87.9652 340.97 86.4677 343.901 83.8392L342.346 86.3324C339.019 91.6317 335.044 96.9831 332.478 102.689C326.751 115.155 322.902 128.633 324.612 142.465C326.156 154.868 332.113 166.082 339.791 175.784C350.327 189.095 363.158 200.695 374.413 213.421C387.056 227.723 399.345 242.473 410.642 257.871C421.94 273.268 431.12 293.338 422.117 312.188C421.272 313.941 423.599 310.321 423.16 310.978C424.913 308.443 426.53 305.762 428.168 303.165C431.506 297.834 435.313 292.493 438.026 286.808C445.432 271.223 441.551 254.22 432.914 240.095C423.244 224.281 410.538 209.916 398.49 195.875Z" fill="white"/>
</g>
<defs>
<clipPath id="clip0_185_864">
<rect width="500" height="312.626" fill="white"/>
</clipPath>
</defs>
</svg>
