<svg width="50" height="50" viewBox="0 0 50 50" fill="none" xmlns="http://www.w3.org/2000/svg">
<circle cx="25" cy="25" r="24" fill="#006C35" stroke="white" stroke-width="2"/>
<path d="M9.72007 20.3925C10.7701 20.5007 10.1901 18.5425 10.5701 18.1855C10.6401 18.0124 10.7801 18.0124 10.7901 18.2287V19.884C10.7801 20.425 11.1201 20.5765 11.3901 20.6955C11.6701 20.6738 11.8501 20.6847 11.9601 20.966L12.0901 23.833C12.0901 23.833 12.7301 24.0277 12.7601 22.221C12.7901 21.1607 12.5601 20.2735 12.7001 20.068C12.7101 19.8624 12.9501 19.8516 13.1301 19.949C13.4101 20.1545 13.5301 20.4034 13.9601 20.2952C14.6101 20.1112 15.0001 19.7759 15.0101 19.2565C14.9701 18.7589 14.9201 18.272 14.7101 17.7743C14.7401 17.6878 14.5801 17.4498 14.6101 17.3632C14.7301 17.558 14.9001 17.5363 14.9401 17.3632C14.8301 16.9845 14.6601 16.6167 14.3801 16.4652C14.1501 16.2488 13.8101 16.2921 13.6901 16.7357C13.6301 17.2442 13.8701 17.8392 14.2201 18.3369C14.3001 18.5317 14.4001 18.8454 14.3601 19.1375C14.1701 19.2457 13.9801 19.2024 13.8301 19.0293C13.8301 19.0293 13.3101 18.629 13.3101 18.5317C13.4501 17.6229 13.3401 17.5147 13.2601 17.2658C13.2101 16.9196 13.0501 16.8006 12.9201 16.5626C12.7901 16.4219 12.6201 16.4219 12.5301 16.5626C12.3001 16.9737 12.4101 17.8609 12.5701 18.2612C12.6901 18.629 12.8701 18.8562 12.7801 18.8562C12.7101 19.0618 12.5601 19.0185 12.4601 18.7805C12.3101 18.2936 12.2801 17.558 12.2801 17.2226C12.2301 16.8114 12.1801 15.9351 11.9201 15.7187C11.7601 15.4915 11.5301 15.5997 11.4401 15.8053C11.4201 16.2056 11.4201 16.6167 11.4701 16.9954C11.6501 17.6553 11.7001 18.2287 11.7901 18.8995C11.8101 19.7975 11.2901 19.289 11.3101 18.8454C11.4301 18.2612 11.4001 17.3524 11.2901 17.1144C11.2101 16.8872 11.1001 16.8223 10.9001 16.8655C10.7401 16.8547 10.3101 17.3307 10.1901 18.1314C10.1901 18.1314 10.0901 18.5425 10.0401 18.9103C9.98007 19.3215 9.72007 19.6136 9.54007 18.8562C9.38007 18.3045 9.28007 16.9413 9.02007 17.255C8.94007 18.3369 8.85007 20.2086 9.72007 20.3925Z" fill="white"/>
<path d="M11.3101 21.1715C10.4401 21.1931 9.17008 22.3508 9.14008 22.9999C10.0501 22.5455 10.9501 22.1019 11.8801 21.6367C11.7301 21.3987 11.8701 21.1931 11.3101 21.1715Z" fill="white"/>
<path d="M16.0901 24.666C16.4901 23.2704 16.0301 22.2534 16.2401 22.2534C16.7001 22.7727 17.3501 22.3183 17.4901 22.1452C17.5501 22.0587 17.7001 21.9937 17.8101 22.1128C18.1701 22.3832 18.8101 22.2534 18.9401 21.7774C19.0201 21.3013 19.0701 20.8145 19.0901 20.3384C18.8001 20.4358 18.5801 20.5007 18.5501 20.6197L18.4901 21.0308C18.4601 21.1607 18.2101 21.1715 18.2001 20.9984C18.0901 20.4683 17.6201 20.4033 17.3401 21.2148C17.1501 21.3771 16.8101 21.4095 16.7801 21.1715C16.8301 20.6197 16.6101 20.544 16.1901 20.8036C16.0501 19.7109 15.9101 18.6723 15.7801 17.5904C15.9601 17.5904 16.1201 17.7202 16.2801 17.5147C16.1001 16.9412 15.7201 15.762 15.5201 15.6754C15.4201 15.5456 15.3301 15.6321 15.2001 15.6646C14.9801 15.7403 14.7701 15.9351 14.8301 16.3246C15.1001 17.9907 15.2701 19.2673 15.5301 20.9335C15.5701 21.1282 15.4101 21.3879 15.2101 21.3662C14.8701 21.1282 14.7801 20.6305 14.1901 20.6522C13.7601 20.6522 13.2701 21.139 13.2101 21.6043C13.1401 21.9721 13.1101 22.3724 13.2101 22.697C13.5101 23.0756 13.8701 23.0324 14.1901 22.9458C14.4501 22.8376 14.6601 22.5672 14.7501 22.6321C14.8101 22.7078 14.7601 23.595 13.5301 24.2766C12.7801 24.6228 12.1901 24.7093 11.8701 24.071C11.6701 23.6707 11.8901 22.1668 11.4001 22.5131C9.96011 26.3863 14.7801 26.9164 15.3201 22.6753C15.3701 22.5022 15.5701 22.3291 15.6101 22.6104C15.5001 26.462 11.8701 26.7217 11.2601 25.5099C11.1101 25.2286 11.0601 24.5903 11.0501 24.2116C10.9601 23.4543 10.5801 23.7464 10.5201 24.4929C10.4601 24.9149 10.4701 25.0231 10.4701 25.4234C10.6601 28.4852 15.3301 27.1761 16.0901 24.666ZM14.2901 22.037C14.2601 22.0911 14.1301 22.0695 14.0301 22.0695C13.9201 22.0695 13.8701 22.0478 13.8001 21.9505C13.7701 21.8423 13.8601 21.7449 13.9101 21.6692C13.9601 21.5826 14.2401 21.4852 14.3401 21.7341C14.3701 21.8423 14.3501 21.9613 14.2901 22.037Z" fill="white"/>
<path d="M17.5301 18.5966C17.8201 18.4884 19.1901 16.8547 19.1901 16.8547C19.1201 16.7898 19.0501 16.7465 18.9801 16.6816C18.9001 16.6167 18.9101 16.5409 18.9801 16.476C19.3201 16.2705 19.2101 15.8161 19.0301 15.6105C18.8001 15.4915 18.5201 15.4915 18.2901 15.6213C18.0501 15.8593 18.0001 16.238 18.1801 16.476C18.3601 16.5626 18.5501 16.7573 18.4301 16.8655C17.8701 17.493 16.3301 18.5641 16.5101 18.6074C16.5501 18.6507 17.5001 18.6398 17.5301 18.5966ZM18.5501 16.0324C18.6401 16.0108 18.7501 16.0865 18.8101 16.2164C18.8701 16.3462 18.8401 16.4544 18.7501 16.476C18.6601 16.4977 18.5501 16.4219 18.5001 16.2921C18.4301 16.1623 18.4601 16.0541 18.5501 16.0324ZM9.63008 25.9535C9.40008 26.4296 9.31008 26.105 9.29008 25.8345C9.26008 25.3801 9.29008 24.9365 9.35008 24.4821C9.41008 24.1035 9.35008 24.2225 9.23008 24.3739C8.72008 25.2286 8.67008 26.5053 8.96008 26.884C9.11008 27.0679 9.36008 27.1436 9.54008 27.0895C9.86008 26.9489 10.0101 26.2673 9.93008 26.0184C9.82008 25.8345 9.74008 25.8021 9.63008 25.9535ZM26.6001 16.9304C27.1901 17.7527 27.7601 18.5966 28.3101 19.4621C28.4201 20.2086 28.5001 20.9335 28.5401 21.6584C28.6301 23.054 28.6601 24.5579 28.5801 26.0184C28.8301 26.0293 29.2301 25.5965 29.3701 24.969C29.4601 24.0926 29.3401 22.5347 29.3301 22.0262C29.3201 21.7016 29.3001 21.3771 29.2801 21.0525C29.9401 22.1669 30.5801 23.3353 31.2001 24.6336C31.4301 24.5254 31.3801 23.1947 31.2401 23.0107C30.7401 21.8964 30.0501 20.7928 29.8301 20.3709C29.7501 20.2194 29.4701 19.7758 29.1401 19.2673C29.1101 18.867 29.0601 18.4559 29.0001 18.0556C28.9001 17.3199 29.3001 18.1422 29.2401 17.7094C29.1101 16.9737 28.7101 16.4652 28.2501 15.7944C28.1001 15.578 28.1001 15.5348 27.8701 15.8485C27.7901 16.0433 27.7501 16.2488 27.7601 16.4544C27.6901 16.3462 27.6101 16.238 27.5301 16.1298C27.2801 15.9026 27.0301 15.6754 26.7701 15.459C26.6001 15.3292 26.1901 15.1128 26.1201 15.4807C26.0901 15.7403 26.1001 16.0108 26.1601 16.2705C26.2101 16.4436 26.4701 16.7573 26.6001 16.9304ZM27.8301 16.8872C27.8601 17.0278 27.8901 17.1793 27.9201 17.3199L27.9401 17.4606C27.8701 17.3632 27.8001 17.255 27.7201 17.1576C27.4501 16.8331 27.6801 16.9088 27.8301 16.8872Z" fill="white"/>
<path d="M31.3901 24.969C30.8101 25.5965 29.9701 26.3755 29.0601 26.7325C28.9601 26.8515 29.3001 27.3384 29.7401 27.3384C30.4801 27.2518 31.1301 26.819 31.7301 25.683C31.8901 25.4234 32.1801 24.85 32.1801 24.4172C32.2401 21.8423 32.0601 19.8408 31.6801 17.9799C31.6601 17.8284 31.6601 17.6769 31.7001 17.5363C31.7501 17.4822 31.9101 17.5363 32.0001 17.3956C32.1301 17.2658 31.6601 16.1515 31.4001 15.7295C31.3101 15.5348 31.2701 15.4158 31.1201 15.7511C30.9601 16.0324 30.8501 16.5085 30.8601 16.9629C31.2101 19.4945 31.3201 21.7124 31.5501 24.2441C31.5801 24.4713 31.5501 24.8283 31.3901 24.969ZM41.1101 18.5533C41.0801 18.3694 41.0101 17.9582 41.0401 17.9041C41.0901 17.7743 41.3301 17.915 41.4201 17.7743C41.5501 17.6445 40.8001 16.6383 40.5301 16.2164C40.4401 16.0216 40.4001 15.9026 40.2501 16.238C40.0901 16.5193 40.0301 17.017 40.0901 17.4497C40.4801 20.1978 40.7701 22.2642 40.8301 24.7093C40.7901 24.9365 40.7901 25.0664 40.6801 25.3585C40.4501 25.6614 40.1901 26.0509 39.9501 26.2348C39.7101 26.4187 39.2001 26.6027 39.0301 26.7325C38.5001 27.0571 38.5001 27.4141 38.9301 27.4249C39.6701 27.3384 40.5401 27.2734 41.1401 26.3322C41.3001 26.0725 41.4901 25.3585 41.5001 24.9149C41.5601 22.3291 41.4801 20.4033 41.1101 18.5533ZM35.5201 20.6955C35.5301 20.3384 35.5601 19.8732 35.5801 19.5811C35.5901 19.4729 35.6101 19.3539 35.7101 19.3214C35.8101 19.289 35.9901 19.4296 35.9901 19.3106C35.9701 19.0834 35.9301 18.7588 35.8001 18.5966C35.6301 18.3369 35.1901 18.4018 35.1101 18.8021C35.1101 18.9536 35.1801 19.0293 35.1701 19.17C35.1501 19.2457 35.0701 19.2998 34.8901 19.2132C34.9201 19.1808 34.7701 18.9752 34.7701 18.9752C34.6301 18.8887 34.4401 18.9752 34.3201 19.0618C34.2301 19.2349 34.2201 19.4404 34.2801 19.6352C34.4901 20.0139 35.1901 20.6846 35.5201 20.6955Z" fill="white"/>
<path d="M35.2901 17.676C35.7801 18.2927 36.2801 18.931 36.7801 19.5693C36.8901 20.9974 36.9201 22.1659 37.0201 23.6048C37.0001 24.2107 36.8201 24.7408 36.6501 24.8166C36.6501 24.8166 36.3901 24.968 36.2201 24.8058C36.0901 24.7517 35.5901 23.9294 35.5901 23.9294C35.3301 23.6806 35.1601 23.7563 34.9801 23.9294C34.4701 24.4379 34.2401 25.39 33.9001 26.0391C33.8101 26.1906 33.5601 26.3096 33.2801 26.0283C32.5701 25.0221 32.9901 23.6048 32.9001 23.9727C32.2701 24.7084 32.5501 25.9309 32.6901 26.1906C32.9001 26.6234 33.0701 26.8938 33.4701 27.1102C33.8401 27.3915 34.1201 27.2184 34.2801 27.0237C34.6501 26.6234 34.6601 25.6064 34.8301 25.4116C34.9501 25.0438 35.2601 25.1087 35.4101 25.271C35.5501 25.4657 35.7301 25.628 35.9401 25.747C36.2901 26.0608 36.7001 26.1257 37.1001 25.8336C37.3801 25.6713 37.5601 25.4657 37.7201 25.0546C37.9001 24.5569 37.8001 22.2633 37.7701 20.8893C38.0301 21.2355 38.2801 21.5925 38.5301 21.9603C38.6401 23.1072 38.7001 24.254 38.6701 25.4224C38.6401 25.6605 39.4501 24.73 39.4501 24.2864C39.4501 23.9294 39.4501 23.6048 39.4501 23.3019C39.8401 23.9078 40.2201 24.5353 40.5801 25.2061C40.8001 25.0871 40.7301 23.7779 40.5901 23.594C40.1801 22.88 39.6301 22.1334 39.2501 21.5925C39.2201 21.5276 39.2101 21.4518 39.1801 21.3869C39.0301 21.0191 39.1201 20.727 39.0501 20.3375C38.9801 19.948 39.0001 19.3638 38.8901 18.8986C38.8601 18.7146 38.7701 18.1412 38.8001 18.0871C38.8401 17.9573 39.0101 18.0871 39.0901 17.9465C39.2101 17.8058 38.6701 16.3453 38.3901 15.9233C38.2901 15.7394 38.1101 15.8043 37.8901 16.1072C37.6901 16.3128 37.7601 16.7672 37.8401 17.2C38.0401 18.2494 38.2001 19.2664 38.3401 20.2618C38.0401 19.8506 37.7401 19.4395 37.4301 19.0284L37.4201 18.9526C37.4201 18.931 37.3701 18.0438 37.3301 17.8383C37.3201 17.7517 37.3001 17.7301 37.3901 17.7409C37.4801 17.8166 37.4901 17.8275 37.5501 17.8491C37.6401 17.8707 37.7301 17.6976 37.6701 17.5462L36.8101 15.9017C36.7401 15.8259 36.6501 15.7502 36.5401 15.9233C36.4001 16.0423 36.3301 16.2262 36.3301 16.4102C36.3601 16.7997 36.4201 17.2 36.4501 17.5894L36.4901 17.8058C36.4501 17.7626 36.4001 17.6976 36.3901 17.676C35.6601 16.8754 36.7301 17.5462 36.2501 16.9295C35.8501 16.4643 35.7301 16.3236 35.3801 16.0531C35.2101 15.9341 35.1001 15.7178 35.0401 16.0964C35.0101 16.4318 35.0001 16.7564 35.0201 17.0918C35.0001 17.2108 35.1501 17.5029 35.2901 17.676ZM20.4501 19.5477C20.8701 19.7316 21.1401 18.8986 21.3101 17.9898C21.4301 17.7301 21.5201 17.7085 21.5801 17.8383C21.5601 19.05 21.6601 19.3205 21.9601 19.6883C22.6301 20.2293 23.1801 19.7533 23.2301 19.71L23.7501 19.169C23.8601 19.0392 24.0201 19.0392 24.1801 19.1474C24.3401 19.2989 24.3201 19.5585 24.6601 19.7316C24.9501 19.8506 25.5601 19.7641 25.7001 19.5044C25.8901 19.169 25.9401 19.05 26.0301 18.9202C26.1701 18.7363 26.4001 18.812 26.4001 18.8769C26.3801 18.9851 26.2401 19.0933 26.3401 19.2772C26.5001 19.407 26.5401 19.3205 26.6401 19.2989C26.9801 19.1258 27.2301 18.3684 27.2301 18.3684C27.2501 18.0871 27.0901 18.1088 26.9901 18.1629C26.8601 18.2494 26.8501 18.271 26.7201 18.3576C26.5501 18.3792 26.2301 18.4982 26.0701 18.2386C25.9101 17.9357 25.9001 17.5029 25.7801 17.1891C25.7801 17.1675 25.5601 16.7023 25.7601 16.6698C25.8601 16.6915 26.0801 16.7456 26.1101 16.5616C26.2101 16.3777 25.8801 15.8584 25.6501 15.5879C25.4501 15.3607 25.1801 15.3391 24.9101 15.5663C24.7201 15.7394 24.7501 15.9449 24.7101 16.1289C24.6501 16.3993 24.7101 16.6806 24.8801 16.897C25.0701 17.2757 25.4001 17.7626 25.2901 18.455C25.2901 18.455 25.0901 18.7795 24.7501 18.7363C24.6101 18.7038 24.3701 18.6389 24.2501 17.6868C24.1601 16.9619 24.2701 15.9558 23.9801 15.4797C23.8701 15.1984 23.8001 14.9171 23.5401 15.404C23.4701 15.5987 23.1701 15.8909 23.3901 16.4859C23.5701 16.8646 23.6401 17.4813 23.5601 18.1737C23.4401 18.3684 23.4101 18.4333 23.2501 18.6281C23.0201 18.8769 22.7801 18.812 22.5901 18.7254C22.4101 18.6064 22.2801 18.5415 22.2001 18.152C22.2201 17.5245 22.2501 16.5075 22.1401 16.2912C21.9801 15.9558 21.7101 16.0748 21.6001 16.183C21.0501 16.7023 20.7801 17.5786 20.6201 18.2819C20.4701 18.7904 20.3101 18.6497 20.1901 18.4442C19.9101 18.1737 19.9001 16.064 19.5601 16.4102C19.0301 17.9789 19.8701 19.7208 20.4501 19.5477Z" fill="white"/>
<path d="M28.4201 22.9458L28.2601 22.8484L25.1201 22.8376C24.9601 22.7727 25.0101 22.7186 25.1201 22.6753C25.8701 22.5671 27.2001 22.3399 27.2901 21.02C27.2701 20.3276 27.0001 19.8732 26.1901 19.7542C25.5901 19.7975 25.1601 20.4033 25.2301 21.0741C25.2001 21.258 25.2901 21.6042 25.1101 21.6475C23.9601 21.7557 22.7001 22.5022 22.6601 23.0432C22.5901 23.0973 22.4301 22.9458 22.4501 22.7186C22.3901 21.7449 22.1201 20.7928 21.6601 19.9381C21.3001 19.5594 21.4101 19.6893 21.1701 19.8624C21.0101 20.0463 20.9801 20.1761 20.9901 20.5548C20.9901 20.5656 21.2801 21.4203 21.5301 22.0154C21.7001 22.6212 21.8501 23.3245 21.7401 23.9844C21.3501 24.8608 20.5801 25.6398 19.8301 26.0617C19.4401 26.1915 19.1101 26.1483 19.0301 26.0509C18.7901 25.8886 18.8001 25.5748 18.8201 25.5748C19.4501 25.1204 20.1801 24.7526 20.7401 23.5084C20.9101 23.0324 20.9601 22.7511 20.7901 22.0262C20.7401 21.7665 20.6301 21.5285 20.4601 21.3338C20.5601 21.2689 20.8501 21.4961 20.9001 21.3554C20.8201 20.9551 20.6201 20.5873 20.3501 20.2951C20.1201 20.0788 19.8801 20.0571 19.6701 20.2519C19.4401 20.3817 19.3901 20.8686 19.5001 21.2905C19.6201 21.6043 19.9601 21.6583 20.2001 22.2967C20.2001 22.3075 20.2901 22.7727 20.1601 22.9566C20.0601 23.2704 18.7901 24.3198 18.7201 24.3631C18.6901 24.4064 18.7001 24.3415 18.6901 24.1684C18.6801 23.952 18.7701 23.4543 18.7501 23.4543C18.3401 23.7356 18.2001 24.5903 18.1201 24.8391C17.0701 25.5965 15.8801 26.1483 15.1901 26.9164C14.8301 27.5006 17.6501 26.2456 17.9801 26.0942C18.0501 26.1483 18.0401 26.4079 18.2401 26.6459C18.5301 27.0571 19.1501 27.3167 19.7601 27.1544C20.7801 26.7758 21.3701 26.0509 21.9601 25.2503C22.0501 25.1204 22.1801 25.0231 22.3001 25.1204C22.7101 26.0725 23.9001 26.7541 25.4201 26.819C25.7701 26.3755 25.6001 26.1591 25.4601 26.0617C25.4601 26.0509 24.7101 25.7479 24.5901 25.4558C24.5201 25.1854 24.6901 24.9473 25.0301 24.7634C26.0101 24.6444 26.9801 24.5038 27.9101 24.19C27.9201 23.8654 28.1001 23.3786 28.2301 23.1622C28.3701 22.9675 28.4401 23.0215 28.4201 22.9458ZM25.8401 20.9226C25.8901 20.8361 26.0401 20.8469 26.1901 20.9335C26.3401 21.02 26.4201 21.1607 26.3701 21.2364C26.3201 21.323 26.1701 21.3121 26.0201 21.2256C25.8701 21.139 25.7901 20.9984 25.8401 20.9226ZM24.5801 24.2116C24.2401 24.3307 23.9201 24.428 23.9201 24.9257C24.0501 25.6289 23.7501 25.3909 23.5701 25.2935C23.3601 25.1421 22.7801 24.7634 22.7001 23.9628C22.6901 23.7681 22.8301 23.6058 23.0601 23.6058C23.4101 23.7031 23.9201 23.714 24.3701 23.7572C24.7401 23.7897 24.9201 24.0818 24.5801 24.2116ZM12.9701 16.4111C13.3301 16.595 14.0101 16.5193 13.9801 15.9134C13.9801 15.8593 13.9701 15.6754 13.9601 15.6321C13.8901 15.459 13.6901 15.5023 13.6401 15.6862C13.6301 15.7511 13.6701 15.8485 13.6101 15.8702C13.5801 15.9026 13.4701 15.881 13.4701 15.7187C13.4701 15.6646 13.4301 15.6105 13.4101 15.578C13.3901 15.5672 13.3701 15.5564 13.3301 15.5564C13.2801 15.5564 13.2801 15.5672 13.2501 15.6213C13.2401 15.6646 13.2201 15.7079 13.2201 15.762C13.2101 15.8161 13.1901 15.8377 13.1501 15.8485C13.1001 15.8485 13.1101 15.8485 13.0801 15.8269C13.0601 15.8052 13.0301 15.7944 13.0301 15.7511C13.0301 15.697 13.0201 15.6538 13.0101 15.5997C12.9901 15.5672 12.9601 15.5564 12.9201 15.5456C12.7201 15.5456 12.7101 15.7836 12.7201 15.8702C12.7101 15.8702 12.7001 16.2921 12.9701 16.4111Z" fill="white"/>
<path d="M24.0401 20.3601C24.0401 20.306 24.0001 20.2519 23.9801 20.2194C23.9601 20.2086 23.9401 20.1978 23.9001 20.1978C23.8501 20.1978 23.8501 20.2086 23.8201 20.2627C23.8101 20.306 23.7901 20.3493 23.7901 20.4033C23.7801 20.4683 23.7601 20.4899 23.7201 20.4899C23.6701 20.4899 23.6801 20.4899 23.6401 20.4683C23.6201 20.4466 23.5901 20.4358 23.5901 20.3925C23.5901 20.3384 23.5801 20.2952 23.5701 20.2411C23.5501 20.2086 23.5201 20.1978 23.4801 20.1978C23.2801 20.1978 23.2701 20.4358 23.2801 20.5224C23.2601 20.544 23.2601 20.9551 23.5201 21.0741C23.8801 21.2472 24.7401 21.1499 24.5301 20.5765C24.5301 20.4791 24.5201 20.3817 24.5101 20.2952C24.4401 20.1221 24.2301 20.1653 24.1901 20.3493C24.1801 20.4142 24.2201 20.5115 24.1601 20.5332C24.1601 20.544 24.0401 20.5224 24.0401 20.3601ZM29.7101 19.1375C30.0701 19.3214 30.7501 19.2457 30.7201 18.6398C30.7201 18.5425 30.7101 18.4451 30.7001 18.3585C30.6301 18.1854 30.4301 18.2287 30.3801 18.4126C30.3701 18.4776 30.4101 18.5749 30.3501 18.5966C30.3201 18.629 30.2001 18.6074 30.2101 18.4451C30.2101 18.391 30.1701 18.3369 30.1501 18.3045C30.1301 18.2936 30.1101 18.2828 30.0701 18.2828C30.0201 18.2828 30.0201 18.2936 29.9901 18.3477C29.9801 18.391 29.9601 18.4343 29.9601 18.4884C29.9501 18.5533 29.9301 18.5749 29.8901 18.5749C29.8401 18.5749 29.8501 18.5749 29.8101 18.5533C29.7901 18.5317 29.7601 18.5208 29.7601 18.4776C29.7601 18.4235 29.7501 18.3802 29.7401 18.3261C29.7201 18.2936 29.6901 18.2828 29.6501 18.2828C29.4501 18.2828 29.4401 18.5208 29.4501 18.6074C29.4501 18.5966 29.4401 19.0185 29.7101 19.1375ZM29.9501 16.7898C30.0801 17.1684 29.8501 17.5255 29.9901 17.5688C30.1101 17.6228 30.2801 17.1793 30.3501 16.7681C30.4301 16.4328 30.2001 15.7512 29.8701 15.6105C29.6701 15.5672 29.3901 15.6862 29.4801 15.9567C29.4401 16.0974 29.8801 16.5518 29.9501 16.7898ZM33.2701 25.564C33.5201 25.564 33.8101 24.969 33.9401 24.3739C34.0101 23.5517 33.8901 23.0648 33.8701 22.578C33.8501 22.1019 33.3501 18.4343 33.2401 18.0772C33.1201 17.3848 33.7301 17.9907 33.6601 17.5904C33.4501 17.0819 32.9201 16.357 32.7601 15.9134C32.6601 15.7295 32.7001 15.5564 32.4801 15.8702C32.2801 16.5734 32.2001 17.1468 32.2801 17.5796C32.8201 20.4358 33.3601 22.8268 33.2701 25.564ZM39.5301 18.0448C39.5901 18.2287 39.4401 18.8346 39.5601 18.8887C39.6701 18.9536 39.8301 18.4667 39.8901 18.0232C39.9201 17.7743 39.7501 16.9304 39.4501 16.779C39.2701 16.7249 39.0201 16.8547 39.1001 17.1576C39.0701 17.2983 39.4701 17.7851 39.5301 18.0448ZM17.6701 24.3739C17.7801 24.4172 17.9301 24.071 17.9801 23.7356C18.0101 23.5517 17.8401 22.935 17.5601 22.816C17.3901 22.7727 17.1501 22.8268 17.2201 23.0973C17.2101 23.2379 17.6001 23.411 17.6301 23.7464C17.6901 23.8871 17.5501 24.3307 17.6701 24.3739ZM10.0801 16.3895C10.1301 16.5301 10.0201 16.9953 10.1401 17.0386C10.2401 17.0819 10.3901 16.7249 10.4501 16.3787C10.4801 16.1947 10.4601 15.5564 10.0401 15.4266C9.87008 15.3833 9.63008 15.4807 9.71008 15.7079C9.66008 15.8161 10.0101 16.1839 10.0801 16.3895ZM18.2501 18.4126C17.9301 18.5966 17.8101 19.1267 18.0101 19.4405C18.2001 19.7109 18.4901 19.6136 18.5301 19.6136C18.8401 19.6568 19.0301 19.0077 19.0301 19.0077C19.0301 19.0077 19.0401 18.8238 18.6701 19.17C18.5101 19.2024 18.4901 19.1375 18.4601 19.051C18.4201 18.8779 18.4401 18.7048 18.5101 18.5425C18.5401 18.3802 18.4201 18.3045 18.2501 18.4126ZM20.6501 16.4219C20.7501 16.357 20.8301 16.2488 20.8501 16.119C20.9001 15.8702 20.5901 16.238 20.5501 15.9567C20.4801 15.6971 20.6801 15.5889 20.8601 15.34C20.8701 15.1669 20.8601 15.0371 20.6301 15.1886C20.4701 15.2968 20.1501 15.643 20.1401 16.0433C20.1301 16.2705 20.0901 16.2596 20.2301 16.4111C20.3401 16.5409 20.4401 16.5301 20.6501 16.4219ZM22.8101 16.5518C23.0201 15.9675 23.0201 15.7295 23.0301 15.4807C22.9701 15.102 22.7201 15.1128 22.5601 15.5348C22.4901 15.6971 22.4101 16.5193 22.4201 16.5193C22.3701 16.7681 22.6801 16.8763 22.8101 16.5518ZM36.4301 20.6846C36.4301 20.6846 34.7601 21.918 34.7201 21.9613C34.5501 22.1128 34.6401 22.6537 34.7201 22.5888C34.8401 22.6321 36.5201 21.4528 36.4901 21.3121C36.5601 21.3121 36.6001 20.6197 36.4301 20.6846ZM36.2301 24.0277C36.3401 24.0926 36.6401 23.714 36.6201 23.2379C36.6501 22.9891 36.5301 22.1019 36.2401 21.9505C36.0601 21.8964 35.8201 22.0587 35.9001 22.3508C35.8601 22.4914 36.1101 22.9891 36.1701 23.2488C36.2401 23.4435 36.1001 23.9736 36.2301 24.0277ZM26.7601 26.6135C26.7601 26.6243 26.9001 26.7541 27.0701 26.6568C27.4201 26.5161 27.6401 26.3863 28.1301 26.2673C28.2601 26.2673 28.2501 25.9102 28.0501 25.8994C27.7801 25.9102 27.5401 25.9319 27.2701 26.1483C27.1101 26.1915 27.0801 26.0834 27.0401 25.986C27.0001 25.7588 27.1301 25.5965 27.1001 25.4234C27.1101 25.4342 26.9501 25.2827 26.7801 25.3693C26.7701 25.3693 26.4101 25.6181 26.3001 25.8021C26.2301 25.8562 26.2401 25.9102 26.2601 26.0076C26.3201 26.1374 26.4101 26.0942 26.5201 26.0401C26.6701 26.0184 26.7401 26.1158 26.7201 26.2997C26.6601 26.5269 26.7601 26.6027 26.7601 26.6135ZM37.6801 26.9056C37.6201 27.003 37.5901 27.1544 37.7601 27.1977C38.0701 27.2843 38.8001 26.7974 38.8001 26.7974C38.9201 26.7109 38.8801 26.5378 38.8701 26.5378C38.8001 26.4512 38.6501 26.5053 38.5401 26.4945C38.4901 26.4945 38.3301 26.4728 38.4101 26.3214C38.4701 26.2456 38.5101 26.1483 38.5401 26.0617C38.5901 25.9535 38.5501 25.8778 38.3701 25.8129C38.1901 25.7804 38.1201 25.7912 37.9201 25.8129C37.8101 25.8345 37.7801 25.8886 37.7601 26.0184C37.7701 26.224 37.8901 26.2132 38.0101 26.2889C38.0801 26.3863 38.1301 26.4728 38.0101 26.6243C37.8801 26.7325 37.8001 26.7974 37.6801 26.9056ZM37.3601 35.8962H34.8601V35.0307C34.8601 34.5547 34.4901 34.1652 34.0301 34.1652C33.5701 34.1652 33.2001 34.5547 33.2001 35.0307V35.8962H13.2001C13.2001 35.8962 13.2001 37.6273 18.2001 37.6273H33.2001V38.4928C33.2001 38.9689 33.5701 39.3583 34.0301 39.3583C34.4901 39.3583 34.8601 38.9689 34.8601 38.4928V37.6273H36.5301V38.4928C36.5301 38.9689 36.9001 39.3583 37.3601 39.3583C37.8201 39.3583 38.1901 38.9689 38.1901 38.4928V36.7618C38.1901 36.2749 37.8201 35.8962 37.3601 35.8962Z" fill="white"/>
</svg>
