<svg width="28" height="15" viewBox="0 0 28 15" fill="none" xmlns="http://www.w3.org/2000/svg">
<path fill-rule="evenodd" clip-rule="evenodd" d="M17.5019 10.1471L17.5019 14.4238C17.5019 14.9832 17.8702 15.1684 18.3228 14.8319L27.3887 8.11018C27.4927 8.04601 27.5786 7.95629 27.6381 7.84956C27.6977 7.74282 27.7289 7.62263 27.7289 7.5004C27.7289 7.37817 27.6977 7.25798 27.6381 7.15125C27.5786 7.04452 27.4927 6.95479 27.3887 6.89062L18.3252 0.168925C17.8713 -0.167629 17.5043 0.0141336 17.5043 0.577011L17.5043 4.85253L1.02607 4.85253C0.891557 4.8516 0.758194 4.87731 0.633669 4.92818C0.509142 4.97905 0.395918 5.05407 0.300529 5.14892C0.205141 5.24376 0.129472 5.35655 0.0778902 5.48078C0.0263078 5.60502 -0.00016619 5.73823 -7.8861e-06 5.87275L-8.02834e-06 9.12688C-9.94157e-06 9.26135 0.0265709 9.3945 0.0782085 9.51866C0.129844 9.64282 0.205518 9.75555 0.300876 9.85036C0.396234 9.94518 0.509395 10.0202 0.633852 10.0711C0.758308 10.1221 0.891601 10.1479 1.02607 10.1471L17.5019 10.1471Z" fill="#178D7B"/>
</svg>
