<svg width="30" height="30" viewBox="0 0 30 30" fill="none" xmlns="http://www.w3.org/2000/svg">
<path d="M15.0525 29.1932C5.28625 29.1932 0 23.0829 0 15.1943C0 6.76445 5.9525 0 16.595 0C24.3625 0 30 5.06018 30 12.0314C30 22.9488 17.0875 25.831 17.735 19.6029C16.8475 20.9914 15.4175 22.5528 12.6688 22.5528C9.52375 22.5528 7.56875 20.2445 7.56875 16.5289C7.56875 10.96 11.22 6.25443 15.5425 6.25443C17.6163 6.25443 19.0425 7.35218 19.6388 9.03765L20.2188 6.99253H23.1413C22.8363 8.03514 20.24 17.6781 20.24 17.6781C19.43 21.0189 21.9275 21.0778 24.1425 19.3034C28.3037 16.0703 28.5187 7.61534 22.895 4.089C16.8687 0.466168 3.15125 2.70804 3.15125 14.9825C3.15125 22.0139 8.08875 26.7383 15.4375 26.7383C19.7325 26.7383 22.365 25.5728 24.5563 24.2971L26.0275 26.425C23.8888 27.6355 20.4513 29.1932 15.0525 29.1932ZM12.1225 11.267C11.2288 12.9462 10.6512 15.1216 10.6512 16.8109C10.6512 21.3347 15.0538 21.3635 17.2162 17.1104C18.1062 15.3635 18.68 13.1367 18.68 11.4349C18.68 7.7795 14.3112 7.13162 12.1225 11.267Z" fill="white"/>
</svg>
