<svg width="50" height="50" viewBox="0 0 50 50" fill="none" xmlns="http://www.w3.org/2000/svg">
<g clip-path="url(#clip0_423_13)">
<path d="M74.564 -0.0750122H-25.438V50H74.564V-0.0750122Z" fill="#000066"/>
<path d="M-25.438 -0.0750122V5.52499L63.383 50H74.564V44.4L-14.258 -0.0750122H-25.438ZM74.562 -0.0750122V5.52499L-14.258 50H-25.438V44.4L63.383 -0.0750122H74.562Z" fill="white"/>
<path d="M16.229 -0.0750122V50H32.9V-0.0750122H16.229ZM-25.438 16.616V33.308H74.562V16.616H-25.438Z" fill="white"/>
<path d="M-25.438 19.955V29.97H74.562V19.955H-25.438ZM19.562 -0.0750122V50H29.562V-0.0750122H19.562Z" fill="#CC0000"/>
<path d="M-25.438 50L7.90001 33.308H15.353L-17.985 50H-25.438ZM-25.438 -0.0750122L7.90001 16.616H0.442013L-25.438 3.65699V-0.0750122ZM33.776 16.616L67.11 -0.0750122H74.564L41.23 16.616H33.776ZM74.564 50L41.23 33.308H48.683L74.564 46.268V50Z" fill="#CC0000"/>
<circle cx="25" cy="25" r="24" stroke="white" stroke-width="2"/>
</g>
<defs>
<clipPath id="clip0_423_13">
<rect width="50" height="50" rx="25" fill="white"/>
</clipPath>
</defs>
</svg>
