<svg width="75" height="69" viewBox="0 0 75 69" fill="none" xmlns="http://www.w3.org/2000/svg">
<path fill-rule="evenodd" clip-rule="evenodd" d="M68.75 37.5C68.6656 20.3219 54.6969 6.25 37.5 6.25C20.3031 6.25 6.33437 20.3219 6.25 37.5H14.0625C16.65 37.5 18.75 39.6 18.75 42.1875V64.0625C18.75 66.65 16.65 68.75 14.0625 68.75H4.6875C2.1 68.75 0 66.65 0 64.0625V37.5C0.084375 16.8719 16.8563 0 37.5 0C58.1437 0 74.9156 16.8719 75 37.5V64.0625C75 66.65 72.9 68.75 70.3125 68.75H60.9375C58.35 68.75 56.25 66.65 56.25 64.0625V42.1875C56.25 39.6 58.35 37.5 60.9375 37.5H68.75Z" fill="#178D7B"/>
</svg>
