<svg width="30" height="30" viewBox="0 0 30 30" fill="none" xmlns="http://www.w3.org/2000/svg">
<path d="M26.4775 9.72168H23.6595C23.6666 9.82956 23.6666 9.93788 23.6595 10.0458C23.4218 11.3075 23.0318 12.5283 22.5 13.6755C21.079 16.6524 19.269 19.3823 17.1282 21.7775L15 23.9974L12.9305 21.7451C10.7789 19.3563 8.96324 16.6254 7.54403 13.6431C7.00965 12.4914 6.61959 11.2649 6.38454 9.99715C6.36413 9.90656 6.34942 9.81451 6.34051 9.72168H3.52251L0 29.1665H30L26.4775 9.72168Z" fill="white"/>
<path d="M7.66146 8.10203C7.66519 8.64682 7.71929 9.18977 7.82291 9.72243C8.04035 10.8484 8.3907 11.938 8.86498 12.9632C10.2177 15.767 11.9334 18.3381 13.9579 20.5953L15 21.7296L16.0421 20.5953C18.0667 18.3381 19.7824 15.767 21.135 12.9632C21.6093 11.938 21.9597 10.8484 22.1771 9.72243C22.2807 9.18977 22.3348 8.64682 22.3386 8.10203C22.3386 5.95323 21.5654 3.89245 20.1892 2.37303C18.8129 0.853604 16.9463 0 15 0C13.0537 0 11.1871 0.853604 9.81087 2.37303C8.43463 3.89245 7.66146 5.95323 7.66146 8.10203ZM16.4677 9.72243H13.5323V6.48162H16.4677V9.72243Z" fill="white"/>
</svg>
