<svg width="30" height="31" viewBox="0 0 30 31" fill="none" xmlns="http://www.w3.org/2000/svg">
<path d="M18.9412 30.3142C8.89516 34.6293 -6.69826 6.14384 3.12143 1.33155L5.99466 0L10.7565 8.73646L7.91742 10.0513C4.93237 11.5559 11.1493 22.9696 14.2025 21.5778C14.3266 21.5252 17.0076 20.2872 17.0171 20.2821L21.8185 28.9904C21.8076 28.9955 19.1062 30.2437 18.9412 30.3142ZM16.8439 13.1297L20.8217 14.2446C21.1258 13.2873 21.0399 12.221 20.4944 11.2752C19.9503 10.3282 19.0462 9.67713 18.0289 9.39262L16.8439 13.1297ZM19.304 5.36593C21.419 5.95801 23.294 7.30879 24.4259 9.276C25.5591 11.2445 25.735 13.4578 25.105 15.4442L22.6572 14.7585C23.1004 13.3604 22.9749 11.8033 22.1772 10.4179C21.3822 9.0325 20.0621 8.08286 18.573 7.66763L19.304 5.36593ZM20.5994 1.28157C23.8245 2.18508 26.6854 4.24456 28.4118 7.24856C30.1423 10.2513 30.4109 13.6282 29.4496 16.6604L26.9404 15.9581C27.7095 13.5295 27.4941 10.8241 26.1113 8.41991C24.7259 6.0144 22.4349 4.36374 19.8508 3.64094L20.5994 1.28157Z" fill="#178D7B"/>
</svg>
