<svg width="30" height="30" viewBox="0 0 30 30" fill="none" xmlns="http://www.w3.org/2000/svg">
<path fill-rule="evenodd" clip-rule="evenodd" d="M14.7854 0C6.65343 0 0 6.75 0 15C0 23.25 6.65343 30 14.7854 30C22.9174 30 29.5708 23.25 29.5708 15C29.5708 6.75 22.9174 0 14.7854 0ZM24.9873 9H20.6996C20.256 7.05 19.5167 5.4 18.6296 3.6C21.291 4.65 23.6566 6.45 24.9873 9ZM14.7854 3C15.9682 4.8 17.0032 6.75 17.5946 9H11.9762C12.5676 6.9 13.6026 4.8 14.7854 3ZM3.40064 18C3.10493 17.1 2.95708 16.05 2.95708 15C2.95708 13.95 3.10493 12.9 3.40064 12H8.42768C8.27982 13.05 8.27982 13.95 8.27982 15C8.27982 16.05 8.42768 16.95 8.42768 18H3.40064ZM4.58347 21H8.87124C9.3148 22.95 10.0541 24.6 10.9412 26.4C8.27982 25.35 5.91416 23.55 4.58347 21ZM8.87124 9H4.58347C6.06201 6.45 8.27982 4.65 10.9412 3.6C10.0541 5.4 9.3148 7.05 8.87124 9ZM14.7854 27C13.6026 25.2 12.5676 23.25 11.9762 21H17.5946C17.0032 23.1 15.9682 25.2 14.7854 27ZM18.186 18H11.3848C11.2369 16.95 11.089 16.05 11.089 15C11.089 13.95 11.2369 13.05 11.3848 12H18.3339C18.4817 13.05 18.6296 13.95 18.6296 15C18.6296 16.05 18.3339 16.95 18.186 18ZM18.6296 26.4C19.5167 24.75 20.256 22.95 20.6996 21H24.9873C23.6566 23.55 21.291 25.35 18.6296 26.4ZM21.291 18C21.4388 16.95 21.4388 16.05 21.4388 15C21.4388 13.95 21.291 13.05 21.291 12H26.318C26.6137 12.9 26.7616 13.95 26.7616 15C26.7616 16.05 26.6137 17.1 26.318 18H21.291Z" fill="white"/>
</svg>
